<?xml version="1.0" encoding="utf-8" standalone="no"?>
<!DOCTYPE svg PUBLIC "-//W3C//DTD SVG 1.1//EN"
  "http://www.w3.org/Graphics/SVG/1.1/DTD/svg11.dtd">
<svg height="432pt" version="1.1" viewBox="0 0 432 432" width="432pt" xmlns="http://www.w3.org/2000/svg" xmlns:xlink="http://www.w3.org/1999/xlink">
 <metadata>
  <rdf:RDF xmlns:cc="http://creativecommons.org/ns#" xmlns:dc="http://purl.org/dc/elements/1.1/" xmlns:rdf="http://www.w3.org/1999/02/22-rdf-syntax-ns#">
   <cc:Work>
    <dc:type rdf:resource="http://purl.org/dc/dcmitype/StillImage"/>
    <dc:date>2021-04-12T11:54:57.671482</dc:date>
    <dc:format>image/svg+xml</dc:format>
    <dc:creator>
     <cc:Agent>
      <dc:title>Matplotlib v3.4.1, https://matplotlib.org/</dc:title>
     </cc:Agent>
    </dc:creator>
   </cc:Work>
  </rdf:RDF>
 </metadata>
 <defs>
  <style type="text/css">*{stroke-linecap:butt;stroke-linejoin:round;}</style>
 </defs>
 <g id="figure_1">
  <g id="patch_1">
   <path d="M 0 432 
L 432 432 
L 432 0 
L 0 0 
z
" style="fill:#ffffff;"/>
  </g>
  <g id="axes_1">
   <g id="line2d_1">
    <path clip-path="url(#p4fba320df8)" d="M 184.837117 237.492337 
L 184.827406 237.126921 
L 184.798304 236.762525 
L 184.749901 236.400162 
L 184.682346 236.040843 
L 184.595849 235.68557 
L 184.490676 235.335332 
L 184.367153 234.991107 
L 184.225659 234.653853 
L 184.066629 234.32451 
L 183.89055 234.003997 
L 183.697963 233.693206 
L 183.489453 233.393004 
L 183.265656 233.104228 
L 183.027249 232.827682 
L 182.774953 232.564138 
L 182.509527 232.314329 
L 182.231767 232.078952 
L 181.942503 231.858663 
L 181.642595 231.654076 
L 181.33293 231.465762 
L 181.014419 231.294245 
L 180.687998 231.140003 
L 180.354618 231.003466 
L 180.015245 230.885014 
L 179.67086 230.784979 
L 179.322451 230.703638 
L 178.971012 230.641218 
L 178.61754 230.597894 
L 178.263033 230.573786 
L 177.908485 230.568961 
L 177.554885 230.583432 
L 177.203212 230.61716 
L 176.854437 230.670051 
L 176.509513 230.741956 
L 176.16938 230.832676 
L 175.834959 230.941957 
L 175.50715 231.069496 
L 175.186829 231.214936 
L 174.874848 231.377873 
L 174.572033 231.557851 
L 174.279179 231.75437 
L 173.997053 231.966882 
L 173.72639 232.194794 
L 173.467889 232.437472 
L 173.222217 232.694238 
L 172.990003 232.964377 
L 172.771841 233.247137 
L 172.568285 233.541729 
L 172.37985 233.847331 
L 172.207012 234.163094 
L 172.050205 234.488135 
L 171.909822 234.821549 
L 171.786214 235.162408 
L 171.679689 235.50976 
L 171.590512 235.862639 
L 171.518903 236.220059 
L 171.465041 236.581026 
L 171.429059 236.944532 
L 171.411046 237.309565 
L 171.411046 237.675108 
L 171.429059 238.040142 
L 171.465041 238.403648 
L 171.518903 238.764615 
L 171.590512 239.122035 
L 171.679689 239.474913 
L 171.786214 239.822266 
L 171.909822 240.163124 
L 172.050205 240.496539 
L 172.207012 240.82158 
L 172.37985 241.137342 
L 172.568285 241.442945 
L 172.771841 241.737537 
L 172.990003 242.020296 
L 173.222217 242.290436 
L 173.467889 242.547202 
L 173.72639 242.789879 
L 173.997053 243.017792 
L 174.279179 243.230303 
L 174.572033 243.426822 
L 174.874848 243.606801 
L 175.186829 243.769737 
L 175.50715 243.915178 
L 175.834959 244.042716 
L 176.16938 244.151998 
L 176.509513 244.242718 
L 176.854437 244.314623 
L 177.203212 244.367513 
L 177.554885 244.401241 
L 177.908485 244.415713 
L 178.263033 244.410888 
L 178.61754 244.38678 
L 178.971012 244.343455 
L 179.322451 244.281036 
L 179.67086 244.199695 
L 180.015245 244.099659 
L 180.354618 243.981208 
L 180.687998 243.844671 
L 181.014419 243.690429 
L 181.33293 243.518912 
L 181.642595 243.330597 
L 181.942503 243.126011 
L 182.231767 242.905722 
L 182.509527 242.670345 
L 182.774953 242.420536 
L 183.027249 242.156992 
L 183.265656 241.880446 
L 183.489453 241.591669 
L 183.697963 241.291468 
L 183.89055 240.980677 
L 184.066629 240.660163 
L 184.225659 240.330821 
L 184.367153 239.993567 
L 184.490676 239.649341 
L 184.595849 239.299104 
L 184.682346 238.943831 
L 184.749901 238.584512 
L 184.798304 238.222149 
L 184.827406 237.857752 
L 184.837117 237.492337 
" style="fill:none;stroke:#bebebe;stroke-linecap:square;"/>
   </g>
   <g id="line2d_2">
    <path clip-path="url(#p4fba320df8)" d="M 200.951105 237.492337 
L 200.91979 236.329651 
L 200.825962 235.170207 
L 200.669968 234.017234 
L 200.452383 232.873947 
L 200.17401 231.743533 
L 199.835872 230.629141 
L 199.439207 229.533878 
L 198.985463 228.460797 
L 198.476285 227.412889 
L 197.913512 226.393073 
L 197.299161 225.404194 
L 196.63542 224.449006 
L 195.924635 223.530172 
L 195.169296 222.650254 
L 194.372026 221.811703 
L 193.535567 221.016856 
L 192.662767 220.26793 
L 191.756565 219.567011 
L 190.819974 218.916054 
L 189.856076 218.316871 
L 188.867998 217.771135 
L 187.858904 217.280364 
L 186.831981 216.845929 
L 185.790424 216.469038 
L 184.737427 216.150743 
L 183.676169 215.891931 
L 182.609801 215.693323 
L 181.541438 215.555473 
L 180.474149 215.478765 
L 179.410947 215.463413 
L 178.354781 215.509459 
L 177.308527 215.616775 
L 176.274982 215.785063 
L 175.25686 216.013853 
L 174.256782 216.302507 
L 173.277276 216.650221 
L 172.320771 217.056025 
L 171.389593 217.51879 
L 170.485964 218.037224 
L 169.612 218.609883 
L 168.76971 219.23517 
L 167.960991 219.911344 
L 167.187634 220.636519 
L 166.45132 221.408675 
L 165.753623 222.225658 
L 165.096006 223.085193 
L 164.479828 223.984882 
L 163.906341 224.92222 
L 163.376694 225.894592 
L 162.891931 226.89929 
L 162.452997 227.933512 
L 162.060737 228.994377 
L 161.715895 230.078926 
L 161.419122 231.184139 
L 161.170971 232.306933 
L 160.971902 233.44418 
L 160.82228 234.59271 
L 160.722381 235.749322 
L 160.672386 236.910792 
L 160.672386 238.073882 
L 160.722381 239.235352 
L 160.82228 240.391964 
L 160.971902 241.540494 
L 161.170971 242.677741 
L 161.419122 243.800535 
L 161.715895 244.905747 
L 162.060737 245.990297 
L 162.452997 247.051162 
L 162.891931 248.085384 
L 163.376694 249.090081 
L 163.906341 250.062454 
L 164.479828 250.999791 
L 165.096006 251.899481 
L 165.753623 252.759015 
L 166.45132 253.575999 
L 167.187634 254.348154 
L 167.960991 255.073329 
L 168.76971 255.749503 
L 169.612 256.374791 
L 170.485964 256.94745 
L 171.389593 257.465884 
L 172.320771 257.928648 
L 173.277276 258.334453 
L 174.256782 258.682167 
L 175.25686 258.970821 
L 176.274982 259.199611 
L 177.308527 259.367898 
L 178.354781 259.475215 
L 179.410947 259.521261 
L 180.474149 259.505909 
L 181.541438 259.429201 
L 182.609801 259.291351 
L 183.676169 259.092743 
L 184.737427 258.833931 
L 185.790424 258.515636 
L 186.831981 258.138745 
L 187.858904 257.704309 
L 188.867998 257.213539 
L 189.856076 256.667802 
L 190.819974 256.06862 
L 191.756565 255.417663 
L 192.662767 254.716744 
L 193.535567 253.967818 
L 194.372026 253.172971 
L 195.169296 252.33442 
L 195.924635 251.454501 
L 196.63542 250.535668 
L 197.299161 249.58048 
L 197.913512 248.5916 
L 198.476285 247.571785 
L 198.985463 246.523876 
L 199.439207 245.450795 
L 199.835872 244.355533 
L 200.17401 243.241141 
L 200.452383 242.110727 
L 200.669968 240.96744 
L 200.825962 239.814467 
L 200.91979 238.655022 
L 200.951105 237.492337 
" style="fill:none;stroke:#bebebe;stroke-linecap:square;"/>
   </g>
   <g id="line2d_3">
    <path clip-path="url(#p4fba320df8)" d="M 217.065093 237.492337 
L 217.009133 235.443796 
L 216.841493 233.400965 
L 216.56289 231.369537 
L 216.174516 229.355174 
L 215.678025 227.363491 
L 215.075524 225.400039 
L 214.369556 223.470291 
L 213.563084 221.579624 
L 212.659468 219.733309 
L 211.662439 217.936492 
L 210.576081 216.19418 
L 209.404793 214.51123 
L 208.153269 212.892333 
L 206.82646 211.342 
L 205.429546 209.864553 
L 203.967902 208.464109 
L 202.447066 207.144572 
L 200.872706 205.90962 
L 199.250586 204.762695 
L 197.586537 203.706993 
L 195.886421 202.745457 
L 194.156109 201.880766 
L 192.401443 201.115332 
L 190.628216 200.451286 
L 188.842144 199.890481 
L 187.048841 199.434479 
L 185.253803 199.084551 
L 183.462382 198.841672 
L 181.679774 198.70652 
L 179.911001 198.679471 
L 178.160899 198.7606 
L 176.43411 198.949681 
L 174.735067 199.246188 
L 173.067996 199.649293 
L 171.436904 200.157874 
L 169.845581 200.770513 
L 168.297597 201.485502 
L 166.796303 202.300849 
L 165.344833 203.21428 
L 163.946108 204.223251 
L 162.602839 205.324948 
L 161.317536 206.516302 
L 160.09251 207.793992 
L 158.929884 209.154456 
L 157.831596 210.593903 
L 156.799413 212.108321 
L 155.834934 213.693488 
L 154.939603 215.344988 
L 154.114711 217.058216 
L 153.361412 218.828397 
L 152.680725 220.650598 
L 152.073542 222.51974 
L 151.54064 224.430614 
L 151.082681 226.377892 
L 150.700222 228.356149 
L 150.39372 230.35987 
L 150.163533 232.38347 
L 150.009929 234.42131 
L 149.933083 236.467709 
L 149.933083 238.516964 
L 150.009929 240.563364 
L 150.163533 242.601203 
L 150.39372 244.624804 
L 150.700222 246.628525 
L 151.082681 248.606781 
L 151.54064 250.55406 
L 152.073542 252.464934 
L 152.680725 254.334076 
L 153.361412 256.156277 
L 154.114711 257.926458 
L 154.939603 259.639686 
L 155.834934 261.291185 
L 156.799413 262.876353 
L 157.831596 264.390771 
L 158.929884 265.830218 
L 160.09251 267.190682 
L 161.317536 268.468371 
L 162.602839 269.659725 
L 163.946108 270.761423 
L 165.344833 271.770393 
L 166.796303 272.683825 
L 168.297597 273.499172 
L 169.845581 274.214161 
L 171.436904 274.826799 
L 173.067996 275.33538 
L 174.735067 275.738486 
L 176.43411 276.034993 
L 178.160899 276.224074 
L 179.911001 276.305203 
L 181.679774 276.278154 
L 183.462382 276.143002 
L 185.253803 275.900123 
L 187.048841 275.550195 
L 188.842144 275.094193 
L 190.628216 274.533387 
L 192.401443 273.869342 
L 194.156109 273.103907 
L 195.886421 272.239217 
L 197.586537 271.277681 
L 199.250586 270.221979 
L 200.872706 269.075054 
L 202.447066 267.840102 
L 203.967902 266.520565 
L 205.429546 265.120121 
L 206.82646 263.642674 
L 208.153269 262.092341 
L 209.404793 260.473444 
L 210.576081 258.790494 
L 211.662439 257.048182 
L 212.659468 255.251365 
L 213.563084 253.40505 
L 214.369556 251.514383 
L 215.075524 249.584634 
L 215.678025 247.621182 
L 216.174516 245.6295 
L 216.56289 243.615137 
L 216.841493 241.583709 
L 217.009133 239.540878 
L 217.065093 237.492337 
" style="fill:none;stroke:#bebebe;stroke-linecap:square;"/>
   </g>
   <g id="line2d_4">
    <path clip-path="url(#p4fba320df8)" d="M 233.179082 237.492337 
L 233.095277 234.469355 
L 232.844271 231.454798 
L 232.42728 228.45707 
L 231.846323 225.484524 
L 231.104198 222.545446 
L 230.204463 219.648028 
L 229.151407 216.800345 
L 227.950006 214.010334 
L 226.60589 211.285772 
L 225.125292 208.634252 
L 223.514997 206.063165 
L 221.782293 203.579677 
L 219.934906 201.190709 
L 217.98095 198.90292 
L 215.928857 196.722688 
L 213.787326 194.656087 
L 211.565253 192.708879 
L 209.271676 190.88649 
L 206.915713 189.194 
L 204.506507 187.636126 
L 202.053169 186.217211 
L 199.564729 184.941208 
L 197.050085 183.811675 
L 194.51796 182.83176 
L 191.976858 182.004193 
L 189.435034 181.331282 
L 186.900455 180.814901 
L 184.380777 180.456491 
L 181.883318 180.25705 
L 179.415043 180.217134 
L 176.982547 180.336854 
L 174.592045 180.615877 
L 172.249368 181.053425 
L 169.959956 181.648278 
L 167.728864 182.398779 
L 165.560762 183.302835 
L 163.459948 184.357927 
L 161.43035 185.561114 
L 159.475544 186.909043 
L 157.598769 188.397956 
L 155.802938 190.023704 
L 154.090658 191.781756 
L 152.464251 193.667212 
L 150.925766 195.674816 
L 149.477008 197.798973 
L 148.119549 200.033762 
L 146.854752 202.372955 
L 145.683791 204.810032 
L 144.607667 207.338201 
L 143.627229 209.950415 
L 142.743187 212.639393 
L 141.956135 215.39764 
L 141.266558 218.21747 
L 140.674852 221.091021 
L 140.181332 224.010287 
L 139.786244 226.967129 
L 139.489775 229.953307 
L 139.292057 232.960497 
L 139.193178 235.980319 
L 139.193178 239.004355 
L 139.292057 242.024176 
L 139.489775 245.031367 
L 139.786244 248.017545 
L 140.181332 250.974387 
L 140.674852 253.893652 
L 141.266558 256.767204 
L 141.956135 259.587034 
L 142.743187 262.345281 
L 143.627229 265.034259 
L 144.607667 267.646473 
L 145.683791 270.174641 
L 146.854752 272.611719 
L 148.119549 274.950912 
L 149.477008 277.185701 
L 150.925766 279.309858 
L 152.464251 281.317462 
L 154.090658 283.202918 
L 155.802938 284.960969 
L 157.598769 286.586718 
L 159.475544 288.075631 
L 161.43035 289.42356 
L 163.459948 290.626747 
L 165.560762 291.681839 
L 167.728864 292.585895 
L 169.959956 293.336396 
L 172.249368 293.931249 
L 174.592045 294.368797 
L 176.982547 294.647819 
L 179.415043 294.76754 
L 181.883318 294.727624 
L 184.380777 294.528183 
L 186.900455 294.169772 
L 189.435034 293.653392 
L 191.976858 292.980481 
L 194.51796 292.152914 
L 197.050085 291.172999 
L 199.564729 290.043465 
L 202.053169 288.767463 
L 204.506507 287.348547 
L 206.915713 285.790674 
L 209.271676 284.098184 
L 211.565253 282.275795 
L 213.787326 280.328587 
L 215.928857 278.261986 
L 217.98095 276.081753 
L 219.934906 273.793965 
L 221.782293 271.404997 
L 223.514997 268.921509 
L 225.125292 266.350422 
L 226.60589 263.698902 
L 227.950006 260.97434 
L 229.151407 258.184329 
L 230.204463 255.336646 
L 231.104198 252.439228 
L 231.846323 249.50015 
L 232.42728 246.527604 
L 232.844271 243.529875 
L 233.095277 240.515319 
L 233.179082 237.492337 
" style="fill:none;stroke:#bebebe;stroke-linecap:square;"/>
   </g>
   <g id="line2d_5">
    <path clip-path="url(#p4fba320df8)" d="M 249.29307 237.492337 
L 249.178065 233.406328 
L 248.833672 229.331708 
L 248.261752 225.279833 
L 247.465386 221.261996 
L 246.448846 217.289396 
L 245.217552 213.373106 
L 243.77802 209.52404 
L 242.1378 205.752926 
L 240.305405 202.070276 
L 238.29023 198.486354 
L 236.102469 195.011148 
L 233.75302 191.654346 
L 231.253391 188.425301 
L 228.615604 185.333016 
L 225.852089 182.386108 
L 222.975587 179.59279 
L 219.99905 176.96085 
L 216.935544 174.497621 
L 213.798154 172.20997 
L 210.599894 170.104272 
L 207.353624 168.186397 
L 204.071969 166.461691 
L 200.767248 164.934959 
L 197.451409 163.610458 
L 194.13597 162.491879 
L 190.831973 161.582339 
L 187.549935 160.884375 
L 184.299819 160.39993 
L 181.091007 160.130356 
L 177.932279 160.076404 
L 174.831799 160.238223 
L 171.797116 160.615364 
L 168.83516 161.206775 
L 165.95225 162.010807 
L 163.154108 163.02522 
L 160.445876 164.247186 
L 157.832134 165.673299 
L 155.31693 167.299585 
L 152.903806 169.12151 
L 150.595827 171.133998 
L 148.395616 173.331438 
L 146.305386 175.707706 
L 144.326978 178.256179 
L 142.461893 180.969753 
L 140.711327 183.840866 
L 139.07621 186.861516 
L 137.557236 190.023283 
L 136.154899 193.317354 
L 134.869522 196.734549 
L 133.70129 200.265343 
L 132.650276 203.899896 
L 131.716467 207.628076 
L 130.899793 211.439494 
L 130.200139 215.323526 
L 129.617375 219.269346 
L 129.151363 223.265957 
L 128.801979 227.302219 
L 128.569119 231.366884 
L 128.452708 235.44862 
L 128.452708 239.536053 
L 128.569119 243.61779 
L 128.801979 247.682454 
L 129.151363 251.718717 
L 129.617375 255.715328 
L 130.200139 259.661148 
L 130.899793 263.545179 
L 131.716467 267.356597 
L 132.650276 271.084778 
L 133.70129 274.719331 
L 134.869522 278.250125 
L 136.154899 281.66732 
L 137.557236 284.961391 
L 139.07621 288.123158 
L 140.711327 291.143807 
L 142.461893 294.01492 
L 144.326978 296.728495 
L 146.305386 299.276968 
L 148.395616 301.653236 
L 150.595827 303.850676 
L 152.903806 305.863163 
L 155.31693 307.685089 
L 157.832134 309.311375 
L 160.445876 310.737488 
L 163.154108 311.959454 
L 165.95225 312.973867 
L 168.83516 313.777899 
L 171.797116 314.36931 
L 174.831799 314.746451 
L 177.932279 314.90827 
L 181.091007 314.854318 
L 184.299819 314.584744 
L 187.549935 314.100299 
L 190.831973 313.402334 
L 194.13597 312.492795 
L 197.451409 311.374216 
L 200.767248 310.049715 
L 204.071969 308.522983 
L 207.353624 306.798276 
L 210.599894 304.880402 
L 213.798154 302.774704 
L 216.935544 300.487053 
L 219.99905 298.023824 
L 222.975587 295.391883 
L 225.852089 292.598566 
L 228.615604 289.651658 
L 231.253391 286.559372 
L 233.75302 283.330328 
L 236.102469 279.973525 
L 238.29023 276.49832 
L 240.305405 272.914397 
L 242.1378 269.231747 
L 243.77802 265.460634 
L 245.217552 261.611568 
L 246.448846 257.695278 
L 247.465386 253.722678 
L 248.261752 249.704841 
L 248.833672 245.652966 
L 249.178065 241.578346 
L 249.29307 237.492337 
" style="fill:none;stroke:#bebebe;stroke-linecap:square;"/>
   </g>
   <g id="line2d_6">
    <path clip-path="url(#p4fba320df8)" d="M 265.407058 237.492337 
L 265.257339 232.254716 
L 264.809071 227.031693 
L 264.06492 221.837826 
L 263.029296 216.687591 
L 261.708305 211.595342 
L 260.109682 206.575273 
L 258.242713 201.641376 
L 256.11813 196.807401 
L 253.748005 192.086823 
L 251.145622 187.492798 
L 248.325342 183.038131 
L 245.302466 178.735237 
L 242.093082 174.59611 
L 238.713915 170.632286 
L 235.182175 166.854813 
L 231.515406 163.274219 
L 227.731335 159.900485 
L 223.847727 156.743013 
L 219.882251 153.810603 
L 215.852345 151.11143 
L 211.7751 148.653016 
L 207.667146 146.442213 
L 203.544555 144.485183 
L 199.422753 142.787381 
L 195.316444 141.353538 
L 191.239552 140.187652 
L 187.205164 139.292971 
L 183.225498 138.671989 
L 179.311874 138.326437 
L 175.474701 138.257279 
L 171.723471 138.464706 
L 168.066768 138.948141 
L 164.51228 139.706237 
L 161.066823 140.73688 
L 157.736372 142.037197 
L 154.5261 143.603566 
L 151.440413 145.431619 
L 148.483004 147.516262 
L 145.656899 149.851684 
L 142.964509 152.431377 
L 140.407685 155.248149 
L 137.987776 158.294151 
L 135.705678 161.560893 
L 133.561896 165.039269 
L 131.556592 168.719585 
L 129.689642 172.591583 
L 127.960686 176.64447 
L 126.369176 180.866952 
L 124.914422 185.247259 
L 123.595634 189.773182 
L 122.411964 194.432107 
L 121.362544 199.211049 
L 120.446516 204.096688 
L 119.663061 209.075406 
L 119.011432 214.133327 
L 118.49097 219.256354 
L 118.101124 224.430208 
L 117.841469 229.640469 
L 117.711715 234.872614 
L 117.711715 240.11206 
L 117.841469 245.344205 
L 118.101124 250.554466 
L 118.49097 255.72832 
L 119.011432 260.851347 
L 119.663061 265.909268 
L 120.446516 270.887986 
L 121.362544 275.773625 
L 122.411964 280.552566 
L 123.595634 285.211491 
L 124.914422 289.737415 
L 126.369176 294.117722 
L 127.960686 298.340203 
L 129.689642 302.393091 
L 131.556592 306.265089 
L 133.561896 309.945405 
L 135.705678 313.423781 
L 137.987776 316.690522 
L 140.407685 319.736524 
L 142.964509 322.553297 
L 145.656899 325.13299 
L 148.483004 327.468412 
L 151.440413 329.553055 
L 154.5261 331.381108 
L 157.736372 332.947476 
L 161.066823 334.247794 
L 164.51228 335.278437 
L 168.066768 336.036532 
L 171.723471 336.519968 
L 175.474701 336.727395 
L 179.311874 336.658236 
L 183.225498 336.312685 
L 187.205164 335.691703 
L 191.239552 334.797022 
L 195.316444 333.631136 
L 199.422753 332.197293 
L 203.544555 330.499491 
L 207.667146 328.542461 
L 211.7751 326.331658 
L 215.852345 323.873244 
L 219.882251 321.17407 
L 223.847727 318.241661 
L 227.731335 315.084189 
L 231.515406 311.710455 
L 235.182175 308.129861 
L 238.713915 304.352388 
L 242.093082 300.388564 
L 245.302466 296.249437 
L 248.325342 291.946543 
L 251.145622 287.491876 
L 253.748005 282.897851 
L 256.11813 278.177272 
L 258.242713 273.343298 
L 260.109682 268.4094 
L 261.708305 263.389331 
L 263.029296 258.297083 
L 264.06492 253.146848 
L 264.809071 247.952981 
L 265.257339 242.729958 
L 265.407058 237.492337 
" style="fill:none;stroke:#bebebe;stroke-linecap:square;"/>
   </g>
   <g id="line2d_7">
    <path clip-path="url(#p4fba320df8)" d="M 281.521047 237.492337 
L 281.332941 231.014518 
L 280.769844 224.554754 
L 279.835404 218.13105 
L 278.535649 211.761309 
L 276.878922 205.463285 
L 274.875777 199.254531 
L 272.538859 193.152353 
L 269.882755 187.173759 
L 266.923831 181.335412 
L 263.68005 175.653584 
L 260.170767 170.144111 
L 256.41653 164.822351 
L 252.438862 159.703134 
L 248.26004 154.80073 
L 243.902877 150.128803 
L 239.390505 145.700373 
L 234.746169 141.527784 
L 229.993018 137.622665 
L 225.153917 133.995901 
L 220.251274 130.6576 
L 215.306869 127.617067 
L 210.341717 124.882776 
L 205.375934 122.462348 
L 200.42863 120.362529 
L 195.517817 118.589171 
L 190.660337 117.147219 
L 185.871805 116.040689 
L 181.16658 115.272668 
L 176.557736 114.845294 
L 172.057066 114.75976 
L 167.675089 115.016303 
L 163.421075 115.614209 
L 159.303082 116.551811 
L 155.328005 117.826497 
L 151.501626 119.434712 
L 147.828683 121.371975 
L 144.312935 123.632886 
L 140.95724 126.211145 
L 137.763627 129.099563 
L 134.733381 132.290092 
L 131.867119 135.773838 
L 129.164871 139.541093 
L 126.626163 143.581354 
L 124.250089 147.883363 
L 122.035389 152.435128 
L 119.980522 157.223962 
L 118.083733 162.236519 
L 116.34312 167.458827 
L 114.75669 172.876332 
L 113.322421 178.473932 
L 112.03831 184.236028 
L 110.902422 190.146558 
L 109.912929 196.18905 
L 109.068153 202.346661 
L 108.366593 208.60223 
L 107.806957 214.93832 
L 107.388184 221.337273 
L 107.10946 227.781252 
L 106.970236 234.252299 
L 106.970236 240.732375 
L 107.10946 247.203421 
L 107.388184 253.647401 
L 107.806957 260.046354 
L 108.366593 266.382444 
L 109.068153 272.638013 
L 109.912929 278.795624 
L 110.902422 284.838116 
L 112.03831 290.748646 
L 113.322421 296.510742 
L 114.75669 302.108342 
L 116.34312 307.525846 
L 118.083733 312.748155 
L 119.980522 317.760712 
L 122.035389 322.549546 
L 124.250089 327.101311 
L 126.626163 331.403319 
L 129.164871 335.443581 
L 131.867119 339.210835 
L 134.733381 342.694582 
L 137.763627 345.88511 
L 140.95724 348.773529 
L 144.312935 351.351787 
L 147.828683 353.612699 
L 151.501626 355.549962 
L 155.328005 357.158177 
L 159.303082 358.432862 
L 163.421075 359.370465 
L 167.675089 359.968371 
L 172.057066 360.224914 
L 176.557736 360.13938 
L 181.16658 359.712006 
L 185.871805 358.943984 
L 190.660337 357.837455 
L 195.517817 356.395502 
L 200.42863 354.622145 
L 205.375934 352.522326 
L 210.341717 350.101898 
L 215.306869 347.367607 
L 220.251274 344.327073 
L 225.153917 340.988773 
L 229.993018 337.362009 
L 234.746169 333.45689 
L 239.390505 329.284301 
L 243.902877 324.855871 
L 248.26004 320.183943 
L 252.438862 315.281539 
L 256.41653 310.162323 
L 260.170767 304.840562 
L 263.68005 299.33109 
L 266.923831 293.649262 
L 269.882755 287.810915 
L 272.538859 281.83232 
L 274.875777 275.730143 
L 276.878922 269.521389 
L 278.535649 263.223365 
L 279.835404 256.853624 
L 280.769844 250.429919 
L 281.332941 243.970156 
L 281.521047 237.492337 
" style="fill:none;stroke:#bebebe;stroke-linecap:square;"/>
   </g>
   <g id="line2d_8">
    <path clip-path="url(#p4fba320df8)" d="M 297.635035 237.492337 
L 297.404715 229.685735 
L 296.715369 221.900891 
L 295.571822 214.159504 
L 293.982048 206.483149 
L 291.957064 198.893223 
L 289.510794 191.410879 
L 286.659891 184.056972 
L 283.423531 176.852 
L 279.823176 169.816042 
L 275.882318 162.968711 
L 271.6262 156.329091 
L 267.081525 149.915687 
L 262.276159 143.746375 
L 257.238824 137.838349 
L 251.998799 132.208078 
L 246.585626 126.871252 
L 241.028822 121.842747 
L 235.357609 117.136579 
L 229.600664 112.765863 
L 223.785885 108.742782 
L 217.940183 105.07855 
L 212.089296 101.783379 
L 206.257632 98.866452 
L 200.468141 96.335901 
L 194.742204 94.198779 
L 189.09956 92.461041 
L 183.558251 91.127531 
L 178.134593 90.201966 
L 172.843172 89.686926 
L 167.69686 89.583846 
L 162.706846 89.893014 
L 157.882691 90.613568 
L 153.232392 91.743498 
L 148.762464 93.279657 
L 144.478024 95.217763 
L 140.382891 97.552414 
L 136.479692 100.277102 
L 132.769964 103.384233 
L 129.254269 106.865148 
L 125.932302 110.710144 
L 122.803002 114.908505 
L 119.864663 119.44853 
L 117.115036 124.317563 
L 114.551434 129.502035 
L 112.170828 134.987495 
L 109.969938 140.758654 
L 107.945323 146.799428 
L 106.093461 153.092979 
L 104.410819 159.621766 
L 102.893929 166.367593 
L 101.539446 173.311657 
L 100.344202 180.434604 
L 99.305262 187.716581 
L 98.419963 195.137292 
L 97.685953 202.676054 
L 97.101223 210.311855 
L 96.664137 218.023413 
L 96.373447 225.789235 
L 96.228313 233.587675 
L 96.228313 241.396999 
L 96.373447 249.195439 
L 96.664137 256.96126 
L 97.101223 264.672819 
L 97.685953 272.30862 
L 98.419963 279.847382 
L 99.305262 287.268093 
L 100.344202 294.55007 
L 101.539446 301.673017 
L 102.893929 308.617081 
L 104.410819 315.362907 
L 106.093461 321.891695 
L 107.945323 328.185246 
L 109.969938 334.226019 
L 112.170828 339.997179 
L 114.551434 345.482639 
L 117.115036 350.667111 
L 119.864663 355.536144 
L 122.803002 360.076168 
L 125.932302 364.274529 
L 129.254269 368.119526 
L 132.769964 371.60044 
L 136.479692 374.707572 
L 140.382891 377.43226 
L 144.478024 379.766911 
L 148.762464 381.705016 
L 153.232392 383.241175 
L 157.882691 384.371106 
L 162.706846 385.09166 
L 167.69686 385.400827 
L 172.843172 385.297748 
L 178.134593 384.782707 
L 183.558251 383.857143 
L 189.09956 382.523633 
L 194.742204 380.785895 
L 200.468141 378.648772 
L 206.257632 376.118221 
L 212.089296 373.201295 
L 217.940183 369.906124 
L 223.785885 366.241891 
L 229.600664 362.218811 
L 235.357609 357.848095 
L 241.028822 353.141926 
L 246.585626 348.113422 
L 251.998799 342.776596 
L 257.238824 337.146324 
L 262.276159 331.238299 
L 267.081525 325.068987 
L 271.6262 318.655583 
L 275.882318 312.015963 
L 279.823176 305.168631 
L 283.423531 298.132674 
L 286.659891 290.927702 
L 289.510794 283.573795 
L 291.957064 276.091451 
L 293.982048 268.501525 
L 295.571822 260.82517 
L 296.715369 253.083783 
L 297.404715 245.298939 
L 297.635035 237.492337 
" style="fill:none;stroke:#bebebe;stroke-linecap:square;"/>
   </g>
   <g id="line2d_9">
    <path clip-path="url(#p4fba320df8)" d="M 305.692029 237.492337 
L 305.439116 228.988124 
L 304.682218 220.507613 
L 303.426827 212.074442 
L 301.682018 203.712115 
L 299.460326 195.44394 
L 296.777582 187.292961 
L 293.652705 179.281897 
L 290.107459 171.433076 
L 286.166176 163.768374 
L 281.855455 156.309153 
L 277.203837 149.076205 
L 272.241461 142.089688 
L 266.999723 135.369076 
L 261.510919 128.9331 
L 255.807895 122.799697 
L 249.923711 116.985964 
L 243.891311 111.508103 
L 237.743215 106.381383 
L 231.511231 101.620093 
L 225.226193 97.237503 
L 218.917731 93.245829 
L 212.61406 89.656195 
L 206.341814 86.478607 
L 200.125901 83.721922 
L 193.989393 81.393822 
L 187.95345 79.500797 
L 182.037266 78.048123 
L 176.258051 77.039848 
L 170.631035 76.478783 
L 165.169495 76.366492 
L 159.884808 76.703287 
L 154.786514 77.488231 
L 149.882408 78.719134 
L 145.17863 80.392567 
L 140.679781 82.503865 
L 136.389037 85.047144 
L 132.308269 88.015315 
L 128.438175 91.400105 
L 124.778409 95.19208 
L 121.327701 99.380672 
L 118.083996 103.954206 
L 115.044566 108.899934 
L 112.20614 114.204073 
L 109.56501 119.851838 
L 107.117146 125.827488 
L 104.858294 132.114368 
L 102.784074 138.694955 
L 100.890069 145.550909 
L 99.171904 152.66312 
L 97.62532 160.011765 
L 96.246246 167.576362 
L 95.030851 175.335827 
L 93.975603 183.268534 
L 93.077313 191.352373 
L 92.333176 199.564811 
L 91.740804 207.882961 
L 91.298254 216.283637 
L 91.004049 224.743426 
L 90.857196 233.238748 
L 90.857196 241.745926 
L 91.004049 250.241248 
L 91.298254 258.701037 
L 91.740804 267.101713 
L 92.333176 275.419862 
L 93.077313 283.632301 
L 93.975603 291.716139 
L 95.030851 299.648846 
L 96.246246 307.408312 
L 97.62532 314.972909 
L 99.171904 322.321554 
L 100.890069 329.433765 
L 102.784074 336.289718 
L 104.858294 342.870306 
L 107.117146 349.157186 
L 109.56501 355.132836 
L 112.20614 360.780601 
L 115.044566 366.08474 
L 118.083996 371.030468 
L 121.327701 375.604002 
L 124.778409 379.792594 
L 128.438175 383.584569 
L 132.308269 386.969359 
L 136.389037 389.93753 
L 140.679781 392.480809 
L 145.17863 394.592107 
L 149.882408 396.26554 
L 154.786514 397.496443 
L 159.884808 398.281386 
L 165.169495 398.618182 
L 170.631035 398.505891 
L 176.258051 397.944826 
L 182.037266 396.936551 
L 187.95345 395.483877 
L 193.989393 393.590852 
L 200.125901 391.262752 
L 206.341814 388.506066 
L 212.61406 385.328479 
L 218.917731 381.738845 
L 225.226193 377.747171 
L 231.511231 373.364581 
L 237.743215 368.603291 
L 243.891311 363.476571 
L 249.923711 357.99871 
L 255.807895 352.184977 
L 261.510919 346.051574 
L 266.999723 339.615598 
L 272.241461 332.894985 
L 277.203837 325.908469 
L 281.855455 318.675521 
L 286.166176 311.2163 
L 290.107459 303.551598 
L 293.652705 295.702777 
L 296.777582 287.691713 
L 299.460326 279.540734 
L 301.682018 271.272558 
L 303.426827 262.910232 
L 304.682218 254.477061 
L 305.439116 245.99655 
L 305.692029 237.492337 
" style="fill:none;stroke:#577590;stroke-linecap:square;stroke-width:2;"/>
   </g>
   <g id="line2d_10">
    <path clip-path="url(#p4fba320df8)" d="M 305.692029 237.492337 
L 305.439116 228.988124 
L 304.682218 220.507613 
L 303.426827 212.074442 
L 301.682018 203.712115 
L 299.460326 195.44394 
L 296.777582 187.292961 
L 293.652705 179.281897 
L 290.107459 171.433076 
L 286.166176 163.768374 
L 281.855455 156.309153 
L 277.203837 149.076205 
L 272.241461 142.089688 
L 266.999723 135.369076 
L 261.510919 128.9331 
L 255.807895 122.799697 
L 249.923711 116.985964 
L 243.891311 111.508103 
L 237.743215 106.381383 
L 231.511231 101.620093 
L 225.226193 97.237503 
L 218.917731 93.245829 
L 212.61406 89.656195 
L 206.341814 86.478607 
L 200.125901 83.721922 
L 193.989393 81.393822 
L 187.95345 79.500797 
L 182.037266 78.048123 
L 176.258051 77.039848 
L 170.631035 76.478783 
L 165.169495 76.366492 
L 159.884808 76.703287 
L 154.786514 77.488231 
L 149.882408 78.719134 
L 145.17863 80.392567 
L 140.679781 82.503865 
L 136.389037 85.047144 
L 132.308269 88.015315 
L 128.438175 91.400105 
L 124.778409 95.19208 
L 121.327701 99.380672 
L 118.083996 103.954206 
L 115.044566 108.899934 
L 112.20614 114.204073 
L 109.56501 119.851838 
L 107.117146 125.827488 
L 104.858294 132.114368 
L 102.784074 138.694955 
L 100.890069 145.550909 
L 99.171904 152.66312 
L 97.62532 160.011765 
L 96.246246 167.576362 
L 95.030851 175.335827 
L 93.975603 183.268534 
L 93.077313 191.352373 
L 92.333176 199.564811 
L 91.740804 207.882961 
L 91.298254 216.283637 
L 91.004049 224.743426 
L 90.857196 233.238748 
L 90.857196 241.745926 
L 91.004049 250.241248 
L 91.298254 258.701037 
L 91.740804 267.101713 
L 92.333176 275.419862 
L 93.077313 283.632301 
L 93.975603 291.716139 
L 95.030851 299.648846 
L 96.246246 307.408312 
L 97.62532 314.972909 
L 99.171904 322.321554 
L 100.890069 329.433765 
L 102.784074 336.289718 
L 104.858294 342.870306 
L 107.117146 349.157186 
L 109.56501 355.132836 
L 112.20614 360.780601 
L 115.044566 366.08474 
L 118.083996 371.030468 
L 121.327701 375.604002 
L 124.778409 379.792594 
L 128.438175 383.584569 
L 132.308269 386.969359 
L 136.389037 389.93753 
L 140.679781 392.480809 
L 145.17863 394.592107 
L 149.882408 396.26554 
L 154.786514 397.496443 
L 159.884808 398.281386 
L 165.169495 398.618182 
L 170.631035 398.505891 
L 176.258051 397.944826 
L 182.037266 396.936551 
L 187.95345 395.483877 
L 193.989393 393.590852 
L 200.125901 391.262752 
L 206.341814 388.506066 
L 212.61406 385.328479 
L 218.917731 381.738845 
L 225.226193 377.747171 
L 231.511231 373.364581 
L 237.743215 368.603291 
L 243.891311 363.476571 
L 249.923711 357.99871 
L 255.807895 352.184977 
L 261.510919 346.051574 
L 266.999723 339.615598 
L 272.241461 332.894985 
L 277.203837 325.908469 
L 281.855455 318.675521 
L 286.166176 311.2163 
L 290.107459 303.551598 
L 293.652705 295.702777 
L 296.777582 287.691713 
L 299.460326 279.540734 
L 301.682018 271.272558 
L 303.426827 262.910232 
L 304.682218 254.477061 
L 305.439116 245.99655 
L 305.692029 237.492337 
" style="fill:none;stroke:#577590;stroke-linecap:square;stroke-width:2;"/>
   </g>
   <g id="line2d_11">
    <path clip-path="url(#p4fba320df8)" d="M 305.692029 237.492337 
L 305.439116 228.988124 
L 304.682218 220.507613 
L 303.426827 212.074442 
L 301.682018 203.712115 
L 299.460326 195.44394 
L 296.777582 187.292961 
L 293.652705 179.281897 
L 290.107459 171.433076 
L 286.166176 163.768374 
L 281.855455 156.309153 
L 277.203837 149.076205 
L 272.241461 142.089688 
L 266.999723 135.369076 
L 261.510919 128.9331 
L 255.807895 122.799697 
L 249.923711 116.985964 
L 243.891311 111.508103 
L 237.743215 106.381383 
L 231.511231 101.620093 
L 225.226193 97.237503 
L 218.917731 93.245829 
L 212.61406 89.656195 
L 206.341814 86.478607 
L 200.125901 83.721922 
L 193.989393 81.393822 
L 187.95345 79.500797 
L 182.037266 78.048123 
L 176.258051 77.039848 
L 170.631035 76.478783 
L 165.169495 76.366492 
L 159.884808 76.703287 
L 154.786514 77.488231 
L 149.882408 78.719134 
L 145.17863 80.392567 
L 140.679781 82.503865 
L 136.389037 85.047144 
L 132.308269 88.015315 
L 128.438175 91.400105 
L 124.778409 95.19208 
L 121.327701 99.380672 
L 118.083996 103.954206 
L 115.044566 108.899934 
L 112.20614 114.204073 
L 109.56501 119.851838 
L 107.117146 125.827488 
L 104.858294 132.114368 
L 102.784074 138.694955 
L 100.890069 145.550909 
L 99.171904 152.66312 
L 97.62532 160.011765 
L 96.246246 167.576362 
L 95.030851 175.335827 
L 93.975603 183.268534 
L 93.077313 191.352373 
L 92.333176 199.564811 
L 91.740804 207.882961 
L 91.298254 216.283637 
L 91.004049 224.743426 
L 90.857196 233.238748 
L 90.857196 241.745926 
L 91.004049 250.241248 
L 91.298254 258.701037 
L 91.740804 267.101713 
L 92.333176 275.419862 
L 93.077313 283.632301 
L 93.975603 291.716139 
L 95.030851 299.648846 
L 96.246246 307.408312 
L 97.62532 314.972909 
L 99.171904 322.321554 
L 100.890069 329.433765 
L 102.784074 336.289718 
L 104.858294 342.870306 
L 107.117146 349.157186 
L 109.56501 355.132836 
L 112.20614 360.780601 
L 115.044566 366.08474 
L 118.083996 371.030468 
L 121.327701 375.604002 
L 124.778409 379.792594 
L 128.438175 383.584569 
L 132.308269 386.969359 
L 136.389037 389.93753 
L 140.679781 392.480809 
L 145.17863 394.592107 
L 149.882408 396.26554 
L 154.786514 397.496443 
L 159.884808 398.281386 
L 165.169495 398.618182 
L 170.631035 398.505891 
L 176.258051 397.944826 
L 182.037266 396.936551 
L 187.95345 395.483877 
L 193.989393 393.590852 
L 200.125901 391.262752 
L 206.341814 388.506066 
L 212.61406 385.328479 
L 218.917731 381.738845 
L 225.226193 377.747171 
L 231.511231 373.364581 
L 237.743215 368.603291 
L 243.891311 363.476571 
L 249.923711 357.99871 
L 255.807895 352.184977 
L 261.510919 346.051574 
L 266.999723 339.615598 
L 272.241461 332.894985 
L 277.203837 325.908469 
L 281.855455 318.675521 
L 286.166176 311.2163 
L 290.107459 303.551598 
L 293.652705 295.702777 
L 296.777582 287.691713 
L 299.460326 279.540734 
L 301.682018 271.272558 
L 303.426827 262.910232 
L 304.682218 254.477061 
L 305.439116 245.99655 
L 305.692029 237.492337 
" style="fill:none;stroke:#577590;stroke-linecap:square;stroke-width:2;"/>
   </g>
   <g id="line2d_12">
    <path clip-path="url(#p4fba320df8)" d="M 305.692029 237.492337 
L 305.439116 228.988124 
L 304.682218 220.507613 
L 303.426827 212.074442 
L 301.682018 203.712115 
L 299.460326 195.44394 
L 296.777582 187.292961 
L 293.652705 179.281897 
L 290.107459 171.433076 
L 286.166176 163.768374 
L 281.855455 156.309153 
L 277.203837 149.076205 
L 272.241461 142.089688 
L 266.999723 135.369076 
L 261.510919 128.9331 
L 255.807895 122.799697 
L 249.923711 116.985964 
L 243.891311 111.508103 
L 237.743215 106.381383 
L 231.511231 101.620093 
L 225.226193 97.237503 
L 218.917731 93.245829 
L 212.61406 89.656195 
L 206.341814 86.478607 
L 200.125901 83.721922 
L 193.989393 81.393822 
L 187.95345 79.500797 
L 182.037266 78.048123 
L 176.258051 77.039848 
L 170.631035 76.478783 
L 165.169495 76.366492 
L 159.884808 76.703287 
L 154.786514 77.488231 
L 149.882408 78.719134 
L 145.17863 80.392567 
L 140.679781 82.503865 
L 136.389037 85.047144 
L 132.308269 88.015315 
L 128.438175 91.400105 
L 124.778409 95.19208 
L 121.327701 99.380672 
L 118.083996 103.954206 
L 115.044566 108.899934 
L 112.20614 114.204073 
L 109.56501 119.851838 
L 107.117146 125.827488 
L 104.858294 132.114368 
L 102.784074 138.694955 
L 100.890069 145.550909 
L 99.171904 152.66312 
L 97.62532 160.011765 
L 96.246246 167.576362 
L 95.030851 175.335827 
L 93.975603 183.268534 
L 93.077313 191.352373 
L 92.333176 199.564811 
L 91.740804 207.882961 
L 91.298254 216.283637 
L 91.004049 224.743426 
L 90.857196 233.238748 
L 90.857196 241.745926 
L 91.004049 250.241248 
L 91.298254 258.701037 
L 91.740804 267.101713 
L 92.333176 275.419862 
L 93.077313 283.632301 
L 93.975603 291.716139 
L 95.030851 299.648846 
L 96.246246 307.408312 
L 97.62532 314.972909 
L 99.171904 322.321554 
L 100.890069 329.433765 
L 102.784074 336.289718 
L 104.858294 342.870306 
L 107.117146 349.157186 
L 109.56501 355.132836 
L 112.20614 360.780601 
L 115.044566 366.08474 
L 118.083996 371.030468 
L 121.327701 375.604002 
L 124.778409 379.792594 
L 128.438175 383.584569 
L 132.308269 386.969359 
L 136.389037 389.93753 
L 140.679781 392.480809 
L 145.17863 394.592107 
L 149.882408 396.26554 
L 154.786514 397.496443 
L 159.884808 398.281386 
L 165.169495 398.618182 
L 170.631035 398.505891 
L 176.258051 397.944826 
L 182.037266 396.936551 
L 187.95345 395.483877 
L 193.989393 393.590852 
L 200.125901 391.262752 
L 206.341814 388.506066 
L 212.61406 385.328479 
L 218.917731 381.738845 
L 225.226193 377.747171 
L 231.511231 373.364581 
L 237.743215 368.603291 
L 243.891311 363.476571 
L 249.923711 357.99871 
L 255.807895 352.184977 
L 261.510919 346.051574 
L 266.999723 339.615598 
L 272.241461 332.894985 
L 277.203837 325.908469 
L 281.855455 318.675521 
L 286.166176 311.2163 
L 290.107459 303.551598 
L 293.652705 295.702777 
L 296.777582 287.691713 
L 299.460326 279.540734 
L 301.682018 271.272558 
L 303.426827 262.910232 
L 304.682218 254.477061 
L 305.439116 245.99655 
L 305.692029 237.492337 
" style="fill:none;stroke:#577590;stroke-linecap:square;stroke-width:2;"/>
   </g>
   <g id="line2d_13">
    <path clip-path="url(#p4fba320df8)" d="M 305.692029 237.492337 
L 305.439116 228.988124 
L 304.682218 220.507613 
L 303.426827 212.074442 
L 301.682018 203.712115 
L 299.460326 195.44394 
L 296.777582 187.292961 
L 293.652705 179.281897 
L 290.107459 171.433076 
L 286.166176 163.768374 
L 281.855455 156.309153 
L 277.203837 149.076205 
L 272.241461 142.089688 
L 266.999723 135.369076 
L 261.510919 128.9331 
L 255.807895 122.799697 
L 249.923711 116.985964 
L 243.891311 111.508103 
L 237.743215 106.381383 
L 231.511231 101.620093 
L 225.226193 97.237503 
L 218.917731 93.245829 
L 212.61406 89.656195 
L 206.341814 86.478607 
L 200.125901 83.721922 
L 193.989393 81.393822 
L 187.95345 79.500797 
L 182.037266 78.048123 
L 176.258051 77.039848 
L 170.631035 76.478783 
L 165.169495 76.366492 
L 159.884808 76.703287 
L 154.786514 77.488231 
L 149.882408 78.719134 
L 145.17863 80.392567 
L 140.679781 82.503865 
L 136.389037 85.047144 
L 132.308269 88.015315 
L 128.438175 91.400105 
L 124.778409 95.19208 
L 121.327701 99.380672 
L 118.083996 103.954206 
L 115.044566 108.899934 
L 112.20614 114.204073 
L 109.56501 119.851838 
L 107.117146 125.827488 
L 104.858294 132.114368 
L 102.784074 138.694955 
L 100.890069 145.550909 
L 99.171904 152.66312 
L 97.62532 160.011765 
L 96.246246 167.576362 
L 95.030851 175.335827 
L 93.975603 183.268534 
L 93.077313 191.352373 
L 92.333176 199.564811 
L 91.740804 207.882961 
L 91.298254 216.283637 
L 91.004049 224.743426 
L 90.857196 233.238748 
L 90.857196 241.745926 
L 91.004049 250.241248 
L 91.298254 258.701037 
L 91.740804 267.101713 
L 92.333176 275.419862 
L 93.077313 283.632301 
L 93.975603 291.716139 
L 95.030851 299.648846 
L 96.246246 307.408312 
L 97.62532 314.972909 
L 99.171904 322.321554 
L 100.890069 329.433765 
L 102.784074 336.289718 
L 104.858294 342.870306 
L 107.117146 349.157186 
L 109.56501 355.132836 
L 112.20614 360.780601 
L 115.044566 366.08474 
L 118.083996 371.030468 
L 121.327701 375.604002 
L 124.778409 379.792594 
L 128.438175 383.584569 
L 132.308269 386.969359 
L 136.389037 389.93753 
L 140.679781 392.480809 
L 145.17863 394.592107 
L 149.882408 396.26554 
L 154.786514 397.496443 
L 159.884808 398.281386 
L 165.169495 398.618182 
L 170.631035 398.505891 
L 176.258051 397.944826 
L 182.037266 396.936551 
L 187.95345 395.483877 
L 193.989393 393.590852 
L 200.125901 391.262752 
L 206.341814 388.506066 
L 212.61406 385.328479 
L 218.917731 381.738845 
L 225.226193 377.747171 
L 231.511231 373.364581 
L 237.743215 368.603291 
L 243.891311 363.476571 
L 249.923711 357.99871 
L 255.807895 352.184977 
L 261.510919 346.051574 
L 266.999723 339.615598 
L 272.241461 332.894985 
L 277.203837 325.908469 
L 281.855455 318.675521 
L 286.166176 311.2163 
L 290.107459 303.551598 
L 293.652705 295.702777 
L 296.777582 287.691713 
L 299.460326 279.540734 
L 301.682018 271.272558 
L 303.426827 262.910232 
L 304.682218 254.477061 
L 305.439116 245.99655 
L 305.692029 237.492337 
" style="fill:none;stroke:#577590;stroke-linecap:square;stroke-width:2;"/>
   </g>
   <g id="line2d_14">
    <path clip-path="url(#p4fba320df8)" d="M 305.692029 237.492337 
L 305.439116 228.988124 
L 304.682218 220.507613 
L 303.426827 212.074442 
L 301.682018 203.712115 
L 299.460326 195.44394 
L 296.777582 187.292961 
L 293.652705 179.281897 
L 290.107459 171.433076 
L 286.166176 163.768374 
L 281.855455 156.309153 
L 277.203837 149.076205 
L 272.241461 142.089688 
L 266.999723 135.369076 
L 261.510919 128.9331 
L 255.807895 122.799697 
L 249.923711 116.985964 
L 243.891311 111.508103 
L 237.743215 106.381383 
L 231.511231 101.620093 
L 225.226193 97.237503 
L 218.917731 93.245829 
L 212.61406 89.656195 
L 206.341814 86.478607 
L 200.125901 83.721922 
L 193.989393 81.393822 
L 187.95345 79.500797 
L 182.037266 78.048123 
L 176.258051 77.039848 
L 170.631035 76.478783 
L 165.169495 76.366492 
L 159.884808 76.703287 
L 154.786514 77.488231 
L 149.882408 78.719134 
L 145.17863 80.392567 
L 140.679781 82.503865 
L 136.389037 85.047144 
L 132.308269 88.015315 
L 128.438175 91.400105 
L 124.778409 95.19208 
L 121.327701 99.380672 
L 118.083996 103.954206 
L 115.044566 108.899934 
L 112.20614 114.204073 
L 109.56501 119.851838 
L 107.117146 125.827488 
L 104.858294 132.114368 
L 102.784074 138.694955 
L 100.890069 145.550909 
L 99.171904 152.66312 
L 97.62532 160.011765 
L 96.246246 167.576362 
L 95.030851 175.335827 
L 93.975603 183.268534 
L 93.077313 191.352373 
L 92.333176 199.564811 
L 91.740804 207.882961 
L 91.298254 216.283637 
L 91.004049 224.743426 
L 90.857196 233.238748 
L 90.857196 241.745926 
L 91.004049 250.241248 
L 91.298254 258.701037 
L 91.740804 267.101713 
L 92.333176 275.419862 
L 93.077313 283.632301 
L 93.975603 291.716139 
L 95.030851 299.648846 
L 96.246246 307.408312 
L 97.62532 314.972909 
L 99.171904 322.321554 
L 100.890069 329.433765 
L 102.784074 336.289718 
L 104.858294 342.870306 
L 107.117146 349.157186 
L 109.56501 355.132836 
L 112.20614 360.780601 
L 115.044566 366.08474 
L 118.083996 371.030468 
L 121.327701 375.604002 
L 124.778409 379.792594 
L 128.438175 383.584569 
L 132.308269 386.969359 
L 136.389037 389.93753 
L 140.679781 392.480809 
L 145.17863 394.592107 
L 149.882408 396.26554 
L 154.786514 397.496443 
L 159.884808 398.281386 
L 165.169495 398.618182 
L 170.631035 398.505891 
L 176.258051 397.944826 
L 182.037266 396.936551 
L 187.95345 395.483877 
L 193.989393 393.590852 
L 200.125901 391.262752 
L 206.341814 388.506066 
L 212.61406 385.328479 
L 218.917731 381.738845 
L 225.226193 377.747171 
L 231.511231 373.364581 
L 237.743215 368.603291 
L 243.891311 363.476571 
L 249.923711 357.99871 
L 255.807895 352.184977 
L 261.510919 346.051574 
L 266.999723 339.615598 
L 272.241461 332.894985 
L 277.203837 325.908469 
L 281.855455 318.675521 
L 286.166176 311.2163 
L 290.107459 303.551598 
L 293.652705 295.702777 
L 296.777582 287.691713 
L 299.460326 279.540734 
L 301.682018 271.272558 
L 303.426827 262.910232 
L 304.682218 254.477061 
L 305.439116 245.99655 
L 305.692029 237.492337 
" style="fill:none;stroke:#577590;stroke-linecap:square;stroke-width:2;"/>
   </g>
   <g id="line2d_15">
    <path clip-path="url(#p4fba320df8)" d="M 305.692029 237.492337 
L 305.439116 228.988124 
L 304.682218 220.507613 
L 303.426827 212.074442 
L 301.682018 203.712115 
L 299.460326 195.44394 
L 296.777582 187.292961 
L 293.652705 179.281897 
L 290.107459 171.433076 
L 286.166176 163.768374 
L 281.855455 156.309153 
L 277.203837 149.076205 
L 272.241461 142.089688 
L 266.999723 135.369076 
L 261.510919 128.9331 
L 255.807895 122.799697 
L 249.923711 116.985964 
L 243.891311 111.508103 
L 237.743215 106.381383 
L 231.511231 101.620093 
L 225.226193 97.237503 
L 218.917731 93.245829 
L 212.61406 89.656195 
L 206.341814 86.478607 
L 200.125901 83.721922 
L 193.989393 81.393822 
L 187.95345 79.500797 
L 182.037266 78.048123 
L 176.258051 77.039848 
L 170.631035 76.478783 
L 165.169495 76.366492 
L 159.884808 76.703287 
L 154.786514 77.488231 
L 149.882408 78.719134 
L 145.17863 80.392567 
L 140.679781 82.503865 
L 136.389037 85.047144 
L 132.308269 88.015315 
L 128.438175 91.400105 
L 124.778409 95.19208 
L 121.327701 99.380672 
L 118.083996 103.954206 
L 115.044566 108.899934 
L 112.20614 114.204073 
L 109.56501 119.851838 
L 107.117146 125.827488 
L 104.858294 132.114368 
L 102.784074 138.694955 
L 100.890069 145.550909 
L 99.171904 152.66312 
L 97.62532 160.011765 
L 96.246246 167.576362 
L 95.030851 175.335827 
L 93.975603 183.268534 
L 93.077313 191.352373 
L 92.333176 199.564811 
L 91.740804 207.882961 
L 91.298254 216.283637 
L 91.004049 224.743426 
L 90.857196 233.238748 
L 90.857196 241.745926 
L 91.004049 250.241248 
L 91.298254 258.701037 
L 91.740804 267.101713 
L 92.333176 275.419862 
L 93.077313 283.632301 
L 93.975603 291.716139 
L 95.030851 299.648846 
L 96.246246 307.408312 
L 97.62532 314.972909 
L 99.171904 322.321554 
L 100.890069 329.433765 
L 102.784074 336.289718 
L 104.858294 342.870306 
L 107.117146 349.157186 
L 109.56501 355.132836 
L 112.20614 360.780601 
L 115.044566 366.08474 
L 118.083996 371.030468 
L 121.327701 375.604002 
L 124.778409 379.792594 
L 128.438175 383.584569 
L 132.308269 386.969359 
L 136.389037 389.93753 
L 140.679781 392.480809 
L 145.17863 394.592107 
L 149.882408 396.26554 
L 154.786514 397.496443 
L 159.884808 398.281386 
L 165.169495 398.618182 
L 170.631035 398.505891 
L 176.258051 397.944826 
L 182.037266 396.936551 
L 187.95345 395.483877 
L 193.989393 393.590852 
L 200.125901 391.262752 
L 206.341814 388.506066 
L 212.61406 385.328479 
L 218.917731 381.738845 
L 225.226193 377.747171 
L 231.511231 373.364581 
L 237.743215 368.603291 
L 243.891311 363.476571 
L 249.923711 357.99871 
L 255.807895 352.184977 
L 261.510919 346.051574 
L 266.999723 339.615598 
L 272.241461 332.894985 
L 277.203837 325.908469 
L 281.855455 318.675521 
L 286.166176 311.2163 
L 290.107459 303.551598 
L 293.652705 295.702777 
L 296.777582 287.691713 
L 299.460326 279.540734 
L 301.682018 271.272558 
L 303.426827 262.910232 
L 304.682218 254.477061 
L 305.439116 245.99655 
L 305.692029 237.492337 
" style="fill:none;stroke:#577590;stroke-linecap:square;stroke-width:2;"/>
   </g>
   <g id="line2d_16">
    <path clip-path="url(#p4fba320df8)" d="M 305.692029 237.492337 
L 305.439116 228.988124 
L 304.682218 220.507613 
L 303.426827 212.074442 
L 301.682018 203.712115 
L 299.460326 195.44394 
L 296.777582 187.292961 
L 293.652705 179.281897 
L 290.107459 171.433076 
L 286.166176 163.768374 
L 281.855455 156.309153 
L 277.203837 149.076205 
L 272.241461 142.089688 
L 266.999723 135.369076 
L 261.510919 128.9331 
L 255.807895 122.799697 
L 249.923711 116.985964 
L 243.891311 111.508103 
L 237.743215 106.381383 
L 231.511231 101.620093 
L 225.226193 97.237503 
L 218.917731 93.245829 
L 212.61406 89.656195 
L 206.341814 86.478607 
L 200.125901 83.721922 
L 193.989393 81.393822 
L 187.95345 79.500797 
L 182.037266 78.048123 
L 176.258051 77.039848 
L 170.631035 76.478783 
L 165.169495 76.366492 
L 159.884808 76.703287 
L 154.786514 77.488231 
L 149.882408 78.719134 
L 145.17863 80.392567 
L 140.679781 82.503865 
L 136.389037 85.047144 
L 132.308269 88.015315 
L 128.438175 91.400105 
L 124.778409 95.19208 
L 121.327701 99.380672 
L 118.083996 103.954206 
L 115.044566 108.899934 
L 112.20614 114.204073 
L 109.56501 119.851838 
L 107.117146 125.827488 
L 104.858294 132.114368 
L 102.784074 138.694955 
L 100.890069 145.550909 
L 99.171904 152.66312 
L 97.62532 160.011765 
L 96.246246 167.576362 
L 95.030851 175.335827 
L 93.975603 183.268534 
L 93.077313 191.352373 
L 92.333176 199.564811 
L 91.740804 207.882961 
L 91.298254 216.283637 
L 91.004049 224.743426 
L 90.857196 233.238748 
L 90.857196 241.745926 
L 91.004049 250.241248 
L 91.298254 258.701037 
L 91.740804 267.101713 
L 92.333176 275.419862 
L 93.077313 283.632301 
L 93.975603 291.716139 
L 95.030851 299.648846 
L 96.246246 307.408312 
L 97.62532 314.972909 
L 99.171904 322.321554 
L 100.890069 329.433765 
L 102.784074 336.289718 
L 104.858294 342.870306 
L 107.117146 349.157186 
L 109.56501 355.132836 
L 112.20614 360.780601 
L 115.044566 366.08474 
L 118.083996 371.030468 
L 121.327701 375.604002 
L 124.778409 379.792594 
L 128.438175 383.584569 
L 132.308269 386.969359 
L 136.389037 389.93753 
L 140.679781 392.480809 
L 145.17863 394.592107 
L 149.882408 396.26554 
L 154.786514 397.496443 
L 159.884808 398.281386 
L 165.169495 398.618182 
L 170.631035 398.505891 
L 176.258051 397.944826 
L 182.037266 396.936551 
L 187.95345 395.483877 
L 193.989393 393.590852 
L 200.125901 391.262752 
L 206.341814 388.506066 
L 212.61406 385.328479 
L 218.917731 381.738845 
L 225.226193 377.747171 
L 231.511231 373.364581 
L 237.743215 368.603291 
L 243.891311 363.476571 
L 249.923711 357.99871 
L 255.807895 352.184977 
L 261.510919 346.051574 
L 266.999723 339.615598 
L 272.241461 332.894985 
L 277.203837 325.908469 
L 281.855455 318.675521 
L 286.166176 311.2163 
L 290.107459 303.551598 
L 293.652705 295.702777 
L 296.777582 287.691713 
L 299.460326 279.540734 
L 301.682018 271.272558 
L 303.426827 262.910232 
L 304.682218 254.477061 
L 305.439116 245.99655 
L 305.692029 237.492337 
" style="fill:none;stroke:#577590;stroke-linecap:square;stroke-width:2;"/>
   </g>
   <g id="line2d_17">
    <path clip-path="url(#p4fba320df8)" d="M 305.692029 237.492337 
L 305.439116 228.988124 
L 304.682218 220.507613 
L 303.426827 212.074442 
L 301.682018 203.712115 
L 299.460326 195.44394 
L 296.777582 187.292961 
L 293.652705 179.281897 
L 290.107459 171.433076 
L 286.166176 163.768374 
L 281.855455 156.309153 
L 277.203837 149.076205 
L 272.241461 142.089688 
L 266.999723 135.369076 
L 261.510919 128.9331 
L 255.807895 122.799697 
L 249.923711 116.985964 
L 243.891311 111.508103 
L 237.743215 106.381383 
L 231.511231 101.620093 
L 225.226193 97.237503 
L 218.917731 93.245829 
L 212.61406 89.656195 
L 206.341814 86.478607 
L 200.125901 83.721922 
L 193.989393 81.393822 
L 187.95345 79.500797 
L 182.037266 78.048123 
L 176.258051 77.039848 
L 170.631035 76.478783 
L 165.169495 76.366492 
L 159.884808 76.703287 
L 154.786514 77.488231 
L 149.882408 78.719134 
L 145.17863 80.392567 
L 140.679781 82.503865 
L 136.389037 85.047144 
L 132.308269 88.015315 
L 128.438175 91.400105 
L 124.778409 95.19208 
L 121.327701 99.380672 
L 118.083996 103.954206 
L 115.044566 108.899934 
L 112.20614 114.204073 
L 109.56501 119.851838 
L 107.117146 125.827488 
L 104.858294 132.114368 
L 102.784074 138.694955 
L 100.890069 145.550909 
L 99.171904 152.66312 
L 97.62532 160.011765 
L 96.246246 167.576362 
L 95.030851 175.335827 
L 93.975603 183.268534 
L 93.077313 191.352373 
L 92.333176 199.564811 
L 91.740804 207.882961 
L 91.298254 216.283637 
L 91.004049 224.743426 
L 90.857196 233.238748 
L 90.857196 241.745926 
L 91.004049 250.241248 
L 91.298254 258.701037 
L 91.740804 267.101713 
L 92.333176 275.419862 
L 93.077313 283.632301 
L 93.975603 291.716139 
L 95.030851 299.648846 
L 96.246246 307.408312 
L 97.62532 314.972909 
L 99.171904 322.321554 
L 100.890069 329.433765 
L 102.784074 336.289718 
L 104.858294 342.870306 
L 107.117146 349.157186 
L 109.56501 355.132836 
L 112.20614 360.780601 
L 115.044566 366.08474 
L 118.083996 371.030468 
L 121.327701 375.604002 
L 124.778409 379.792594 
L 128.438175 383.584569 
L 132.308269 386.969359 
L 136.389037 389.93753 
L 140.679781 392.480809 
L 145.17863 394.592107 
L 149.882408 396.26554 
L 154.786514 397.496443 
L 159.884808 398.281386 
L 165.169495 398.618182 
L 170.631035 398.505891 
L 176.258051 397.944826 
L 182.037266 396.936551 
L 187.95345 395.483877 
L 193.989393 393.590852 
L 200.125901 391.262752 
L 206.341814 388.506066 
L 212.61406 385.328479 
L 218.917731 381.738845 
L 225.226193 377.747171 
L 231.511231 373.364581 
L 237.743215 368.603291 
L 243.891311 363.476571 
L 249.923711 357.99871 
L 255.807895 352.184977 
L 261.510919 346.051574 
L 266.999723 339.615598 
L 272.241461 332.894985 
L 277.203837 325.908469 
L 281.855455 318.675521 
L 286.166176 311.2163 
L 290.107459 303.551598 
L 293.652705 295.702777 
L 296.777582 287.691713 
L 299.460326 279.540734 
L 301.682018 271.272558 
L 303.426827 262.910232 
L 304.682218 254.477061 
L 305.439116 245.99655 
L 305.692029 237.492337 
" style="fill:none;stroke:#f94144;stroke-linecap:square;stroke-width:2;"/>
   </g>
   <g id="line2d_18">
    <path clip-path="url(#p4fba320df8)" d="M 305.692029 237.492337 
L 305.439116 228.988124 
L 304.682218 220.507613 
L 303.426827 212.074442 
L 301.682018 203.712115 
L 299.460326 195.44394 
L 296.777582 187.292961 
L 293.652705 179.281897 
L 290.107459 171.433076 
L 286.166176 163.768374 
L 281.855455 156.309153 
L 277.203837 149.076205 
L 272.241461 142.089688 
L 266.999723 135.369076 
L 261.510919 128.9331 
L 255.807895 122.799697 
L 249.923711 116.985964 
L 243.891311 111.508103 
L 237.743215 106.381383 
L 231.511231 101.620093 
L 225.226193 97.237503 
L 218.917731 93.245829 
L 212.61406 89.656195 
L 206.341814 86.478607 
L 200.125901 83.721922 
L 193.989393 81.393822 
L 187.95345 79.500797 
L 182.037266 78.048123 
L 176.258051 77.039848 
L 170.631035 76.478783 
L 165.169495 76.366492 
L 159.884808 76.703287 
L 154.786514 77.488231 
L 149.882408 78.719134 
L 145.17863 80.392567 
L 140.679781 82.503865 
L 136.389037 85.047144 
L 132.308269 88.015315 
L 128.438175 91.400105 
L 124.778409 95.19208 
L 121.327701 99.380672 
L 118.083996 103.954206 
L 115.044566 108.899934 
L 112.20614 114.204073 
L 109.56501 119.851838 
L 107.117146 125.827488 
L 104.858294 132.114368 
L 102.784074 138.694955 
L 100.890069 145.550909 
L 99.171904 152.66312 
L 97.62532 160.011765 
L 96.246246 167.576362 
L 95.030851 175.335827 
L 93.975603 183.268534 
L 93.077313 191.352373 
L 92.333176 199.564811 
L 91.740804 207.882961 
L 91.298254 216.283637 
L 91.004049 224.743426 
L 90.857196 233.238748 
L 90.857196 241.745926 
L 91.004049 250.241248 
L 91.298254 258.701037 
L 91.740804 267.101713 
L 92.333176 275.419862 
L 93.077313 283.632301 
L 93.975603 291.716139 
L 95.030851 299.648846 
L 96.246246 307.408312 
L 97.62532 314.972909 
L 99.171904 322.321554 
L 100.890069 329.433765 
L 102.784074 336.289718 
L 104.858294 342.870306 
L 107.117146 349.157186 
L 109.56501 355.132836 
L 112.20614 360.780601 
L 115.044566 366.08474 
L 118.083996 371.030468 
L 121.327701 375.604002 
L 124.778409 379.792594 
L 128.438175 383.584569 
L 132.308269 386.969359 
L 136.389037 389.93753 
L 140.679781 392.480809 
L 145.17863 394.592107 
L 149.882408 396.26554 
L 154.786514 397.496443 
L 159.884808 398.281386 
L 165.169495 398.618182 
L 170.631035 398.505891 
L 176.258051 397.944826 
L 182.037266 396.936551 
L 187.95345 395.483877 
L 193.989393 393.590852 
L 200.125901 391.262752 
L 206.341814 388.506066 
L 212.61406 385.328479 
L 218.917731 381.738845 
L 225.226193 377.747171 
L 231.511231 373.364581 
L 237.743215 368.603291 
L 243.891311 363.476571 
L 249.923711 357.99871 
L 255.807895 352.184977 
L 261.510919 346.051574 
L 266.999723 339.615598 
L 272.241461 332.894985 
L 277.203837 325.908469 
L 281.855455 318.675521 
L 286.166176 311.2163 
L 290.107459 303.551598 
L 293.652705 295.702777 
L 296.777582 287.691713 
L 299.460326 279.540734 
L 301.682018 271.272558 
L 303.426827 262.910232 
L 304.682218 254.477061 
L 305.439116 245.99655 
L 305.692029 237.492337 
" style="fill:none;stroke:#f94144;stroke-linecap:square;stroke-width:2;"/>
   </g>
   <g id="line2d_19">
    <path clip-path="url(#p4fba320df8)" d="M 305.692029 237.492337 
L 305.439116 228.988124 
L 304.682218 220.507613 
L 303.426827 212.074442 
L 301.682018 203.712115 
L 299.460326 195.44394 
L 296.777582 187.292961 
L 293.652705 179.281897 
L 290.107459 171.433076 
L 286.166176 163.768374 
L 281.855455 156.309153 
L 277.203837 149.076205 
L 272.241461 142.089688 
L 266.999723 135.369076 
L 261.510919 128.9331 
L 255.807895 122.799697 
L 249.923711 116.985964 
L 243.891311 111.508103 
L 237.743215 106.381383 
L 231.511231 101.620093 
L 225.226193 97.237503 
L 218.917731 93.245829 
L 212.61406 89.656195 
L 206.341814 86.478607 
L 200.125901 83.721922 
L 193.989393 81.393822 
L 187.95345 79.500797 
L 182.037266 78.048123 
L 176.258051 77.039848 
L 170.631035 76.478783 
L 165.169495 76.366492 
L 159.884808 76.703287 
L 154.786514 77.488231 
L 149.882408 78.719134 
L 145.17863 80.392567 
L 140.679781 82.503865 
L 136.389037 85.047144 
L 132.308269 88.015315 
L 128.438175 91.400105 
L 124.778409 95.19208 
L 121.327701 99.380672 
L 118.083996 103.954206 
L 115.044566 108.899934 
L 112.20614 114.204073 
L 109.56501 119.851838 
L 107.117146 125.827488 
L 104.858294 132.114368 
L 102.784074 138.694955 
L 100.890069 145.550909 
L 99.171904 152.66312 
L 97.62532 160.011765 
L 96.246246 167.576362 
L 95.030851 175.335827 
L 93.975603 183.268534 
L 93.077313 191.352373 
L 92.333176 199.564811 
L 91.740804 207.882961 
L 91.298254 216.283637 
L 91.004049 224.743426 
L 90.857196 233.238748 
L 90.857196 241.745926 
L 91.004049 250.241248 
L 91.298254 258.701037 
L 91.740804 267.101713 
L 92.333176 275.419862 
L 93.077313 283.632301 
L 93.975603 291.716139 
L 95.030851 299.648846 
L 96.246246 307.408312 
L 97.62532 314.972909 
L 99.171904 322.321554 
L 100.890069 329.433765 
L 102.784074 336.289718 
L 104.858294 342.870306 
L 107.117146 349.157186 
L 109.56501 355.132836 
L 112.20614 360.780601 
L 115.044566 366.08474 
L 118.083996 371.030468 
L 121.327701 375.604002 
L 124.778409 379.792594 
L 128.438175 383.584569 
L 132.308269 386.969359 
L 136.389037 389.93753 
L 140.679781 392.480809 
L 145.17863 394.592107 
L 149.882408 396.26554 
L 154.786514 397.496443 
L 159.884808 398.281386 
L 165.169495 398.618182 
L 170.631035 398.505891 
L 176.258051 397.944826 
L 182.037266 396.936551 
L 187.95345 395.483877 
L 193.989393 393.590852 
L 200.125901 391.262752 
L 206.341814 388.506066 
L 212.61406 385.328479 
L 218.917731 381.738845 
L 225.226193 377.747171 
L 231.511231 373.364581 
L 237.743215 368.603291 
L 243.891311 363.476571 
L 249.923711 357.99871 
L 255.807895 352.184977 
L 261.510919 346.051574 
L 266.999723 339.615598 
L 272.241461 332.894985 
L 277.203837 325.908469 
L 281.855455 318.675521 
L 286.166176 311.2163 
L 290.107459 303.551598 
L 293.652705 295.702777 
L 296.777582 287.691713 
L 299.460326 279.540734 
L 301.682018 271.272558 
L 303.426827 262.910232 
L 304.682218 254.477061 
L 305.439116 245.99655 
L 305.692029 237.492337 
" style="fill:none;stroke:#f94144;stroke-linecap:square;stroke-width:2;"/>
   </g>
   <g id="line2d_20">
    <path clip-path="url(#p4fba320df8)" d="M 305.692029 237.492337 
L 305.439116 228.988124 
L 304.682218 220.507613 
L 303.426827 212.074442 
L 301.682018 203.712115 
L 299.460326 195.44394 
L 296.777582 187.292961 
L 293.652705 179.281897 
L 290.107459 171.433076 
L 286.166176 163.768374 
L 281.855455 156.309153 
L 277.203837 149.076205 
L 272.241461 142.089688 
L 266.999723 135.369076 
L 261.510919 128.9331 
L 255.807895 122.799697 
L 249.923711 116.985964 
L 243.891311 111.508103 
L 237.743215 106.381383 
L 231.511231 101.620093 
L 225.226193 97.237503 
L 218.917731 93.245829 
L 212.61406 89.656195 
L 206.341814 86.478607 
L 200.125901 83.721922 
L 193.989393 81.393822 
L 187.95345 79.500797 
L 182.037266 78.048123 
L 176.258051 77.039848 
L 170.631035 76.478783 
L 165.169495 76.366492 
L 159.884808 76.703287 
L 154.786514 77.488231 
L 149.882408 78.719134 
L 145.17863 80.392567 
L 140.679781 82.503865 
L 136.389037 85.047144 
L 132.308269 88.015315 
L 128.438175 91.400105 
L 124.778409 95.19208 
L 121.327701 99.380672 
L 118.083996 103.954206 
L 115.044566 108.899934 
L 112.20614 114.204073 
L 109.56501 119.851838 
L 107.117146 125.827488 
L 104.858294 132.114368 
L 102.784074 138.694955 
L 100.890069 145.550909 
L 99.171904 152.66312 
L 97.62532 160.011765 
L 96.246246 167.576362 
L 95.030851 175.335827 
L 93.975603 183.268534 
L 93.077313 191.352373 
L 92.333176 199.564811 
L 91.740804 207.882961 
L 91.298254 216.283637 
L 91.004049 224.743426 
L 90.857196 233.238748 
L 90.857196 241.745926 
L 91.004049 250.241248 
L 91.298254 258.701037 
L 91.740804 267.101713 
L 92.333176 275.419862 
L 93.077313 283.632301 
L 93.975603 291.716139 
L 95.030851 299.648846 
L 96.246246 307.408312 
L 97.62532 314.972909 
L 99.171904 322.321554 
L 100.890069 329.433765 
L 102.784074 336.289718 
L 104.858294 342.870306 
L 107.117146 349.157186 
L 109.56501 355.132836 
L 112.20614 360.780601 
L 115.044566 366.08474 
L 118.083996 371.030468 
L 121.327701 375.604002 
L 124.778409 379.792594 
L 128.438175 383.584569 
L 132.308269 386.969359 
L 136.389037 389.93753 
L 140.679781 392.480809 
L 145.17863 394.592107 
L 149.882408 396.26554 
L 154.786514 397.496443 
L 159.884808 398.281386 
L 165.169495 398.618182 
L 170.631035 398.505891 
L 176.258051 397.944826 
L 182.037266 396.936551 
L 187.95345 395.483877 
L 193.989393 393.590852 
L 200.125901 391.262752 
L 206.341814 388.506066 
L 212.61406 385.328479 
L 218.917731 381.738845 
L 225.226193 377.747171 
L 231.511231 373.364581 
L 237.743215 368.603291 
L 243.891311 363.476571 
L 249.923711 357.99871 
L 255.807895 352.184977 
L 261.510919 346.051574 
L 266.999723 339.615598 
L 272.241461 332.894985 
L 277.203837 325.908469 
L 281.855455 318.675521 
L 286.166176 311.2163 
L 290.107459 303.551598 
L 293.652705 295.702777 
L 296.777582 287.691713 
L 299.460326 279.540734 
L 301.682018 271.272558 
L 303.426827 262.910232 
L 304.682218 254.477061 
L 305.439116 245.99655 
L 305.692029 237.492337 
" style="fill:none;stroke:#f94144;stroke-linecap:square;stroke-width:2;"/>
   </g>
   <g id="line2d_21">
    <path clip-path="url(#p4fba320df8)" d="M 305.692029 237.492337 
L 305.439116 228.988124 
L 304.682218 220.507613 
L 303.426827 212.074442 
L 301.682018 203.712115 
L 299.460326 195.44394 
L 296.777582 187.292961 
L 293.652705 179.281897 
L 290.107459 171.433076 
L 286.166176 163.768374 
L 281.855455 156.309153 
L 277.203837 149.076205 
L 272.241461 142.089688 
L 266.999723 135.369076 
L 261.510919 128.9331 
L 255.807895 122.799697 
L 249.923711 116.985964 
L 243.891311 111.508103 
L 237.743215 106.381383 
L 231.511231 101.620093 
L 225.226193 97.237503 
L 218.917731 93.245829 
L 212.61406 89.656195 
L 206.341814 86.478607 
L 200.125901 83.721922 
L 193.989393 81.393822 
L 187.95345 79.500797 
L 182.037266 78.048123 
L 176.258051 77.039848 
L 170.631035 76.478783 
L 165.169495 76.366492 
L 159.884808 76.703287 
L 154.786514 77.488231 
L 149.882408 78.719134 
L 145.17863 80.392567 
L 140.679781 82.503865 
L 136.389037 85.047144 
L 132.308269 88.015315 
L 128.438175 91.400105 
L 124.778409 95.19208 
L 121.327701 99.380672 
L 118.083996 103.954206 
L 115.044566 108.899934 
L 112.20614 114.204073 
L 109.56501 119.851838 
L 107.117146 125.827488 
L 104.858294 132.114368 
L 102.784074 138.694955 
L 100.890069 145.550909 
L 99.171904 152.66312 
L 97.62532 160.011765 
L 96.246246 167.576362 
L 95.030851 175.335827 
L 93.975603 183.268534 
L 93.077313 191.352373 
L 92.333176 199.564811 
L 91.740804 207.882961 
L 91.298254 216.283637 
L 91.004049 224.743426 
L 90.857196 233.238748 
L 90.857196 241.745926 
L 91.004049 250.241248 
L 91.298254 258.701037 
L 91.740804 267.101713 
L 92.333176 275.419862 
L 93.077313 283.632301 
L 93.975603 291.716139 
L 95.030851 299.648846 
L 96.246246 307.408312 
L 97.62532 314.972909 
L 99.171904 322.321554 
L 100.890069 329.433765 
L 102.784074 336.289718 
L 104.858294 342.870306 
L 107.117146 349.157186 
L 109.56501 355.132836 
L 112.20614 360.780601 
L 115.044566 366.08474 
L 118.083996 371.030468 
L 121.327701 375.604002 
L 124.778409 379.792594 
L 128.438175 383.584569 
L 132.308269 386.969359 
L 136.389037 389.93753 
L 140.679781 392.480809 
L 145.17863 394.592107 
L 149.882408 396.26554 
L 154.786514 397.496443 
L 159.884808 398.281386 
L 165.169495 398.618182 
L 170.631035 398.505891 
L 176.258051 397.944826 
L 182.037266 396.936551 
L 187.95345 395.483877 
L 193.989393 393.590852 
L 200.125901 391.262752 
L 206.341814 388.506066 
L 212.61406 385.328479 
L 218.917731 381.738845 
L 225.226193 377.747171 
L 231.511231 373.364581 
L 237.743215 368.603291 
L 243.891311 363.476571 
L 249.923711 357.99871 
L 255.807895 352.184977 
L 261.510919 346.051574 
L 266.999723 339.615598 
L 272.241461 332.894985 
L 277.203837 325.908469 
L 281.855455 318.675521 
L 286.166176 311.2163 
L 290.107459 303.551598 
L 293.652705 295.702777 
L 296.777582 287.691713 
L 299.460326 279.540734 
L 301.682018 271.272558 
L 303.426827 262.910232 
L 304.682218 254.477061 
L 305.439116 245.99655 
L 305.692029 237.492337 
" style="fill:none;stroke:#f94144;stroke-linecap:square;stroke-width:2;"/>
   </g>
   <g id="line2d_22">
    <path clip-path="url(#p4fba320df8)" d="M 305.692029 237.492337 
L 305.439116 228.988124 
L 304.682218 220.507613 
L 303.426827 212.074442 
L 301.682018 203.712115 
L 299.460326 195.44394 
L 296.777582 187.292961 
L 293.652705 179.281897 
L 290.107459 171.433076 
L 286.166176 163.768374 
L 281.855455 156.309153 
L 277.203837 149.076205 
L 272.241461 142.089688 
L 266.999723 135.369076 
L 261.510919 128.9331 
L 255.807895 122.799697 
L 249.923711 116.985964 
L 243.891311 111.508103 
L 237.743215 106.381383 
L 231.511231 101.620093 
L 225.226193 97.237503 
L 218.917731 93.245829 
L 212.61406 89.656195 
L 206.341814 86.478607 
L 200.125901 83.721922 
L 193.989393 81.393822 
L 187.95345 79.500797 
L 182.037266 78.048123 
L 176.258051 77.039848 
L 170.631035 76.478783 
L 165.169495 76.366492 
L 159.884808 76.703287 
L 154.786514 77.488231 
L 149.882408 78.719134 
L 145.17863 80.392567 
L 140.679781 82.503865 
L 136.389037 85.047144 
L 132.308269 88.015315 
L 128.438175 91.400105 
L 124.778409 95.19208 
L 121.327701 99.380672 
L 118.083996 103.954206 
L 115.044566 108.899934 
L 112.20614 114.204073 
L 109.56501 119.851838 
L 107.117146 125.827488 
L 104.858294 132.114368 
L 102.784074 138.694955 
L 100.890069 145.550909 
L 99.171904 152.66312 
L 97.62532 160.011765 
L 96.246246 167.576362 
L 95.030851 175.335827 
L 93.975603 183.268534 
L 93.077313 191.352373 
L 92.333176 199.564811 
L 91.740804 207.882961 
L 91.298254 216.283637 
L 91.004049 224.743426 
L 90.857196 233.238748 
L 90.857196 241.745926 
L 91.004049 250.241248 
L 91.298254 258.701037 
L 91.740804 267.101713 
L 92.333176 275.419862 
L 93.077313 283.632301 
L 93.975603 291.716139 
L 95.030851 299.648846 
L 96.246246 307.408312 
L 97.62532 314.972909 
L 99.171904 322.321554 
L 100.890069 329.433765 
L 102.784074 336.289718 
L 104.858294 342.870306 
L 107.117146 349.157186 
L 109.56501 355.132836 
L 112.20614 360.780601 
L 115.044566 366.08474 
L 118.083996 371.030468 
L 121.327701 375.604002 
L 124.778409 379.792594 
L 128.438175 383.584569 
L 132.308269 386.969359 
L 136.389037 389.93753 
L 140.679781 392.480809 
L 145.17863 394.592107 
L 149.882408 396.26554 
L 154.786514 397.496443 
L 159.884808 398.281386 
L 165.169495 398.618182 
L 170.631035 398.505891 
L 176.258051 397.944826 
L 182.037266 396.936551 
L 187.95345 395.483877 
L 193.989393 393.590852 
L 200.125901 391.262752 
L 206.341814 388.506066 
L 212.61406 385.328479 
L 218.917731 381.738845 
L 225.226193 377.747171 
L 231.511231 373.364581 
L 237.743215 368.603291 
L 243.891311 363.476571 
L 249.923711 357.99871 
L 255.807895 352.184977 
L 261.510919 346.051574 
L 266.999723 339.615598 
L 272.241461 332.894985 
L 277.203837 325.908469 
L 281.855455 318.675521 
L 286.166176 311.2163 
L 290.107459 303.551598 
L 293.652705 295.702777 
L 296.777582 287.691713 
L 299.460326 279.540734 
L 301.682018 271.272558 
L 303.426827 262.910232 
L 304.682218 254.477061 
L 305.439116 245.99655 
L 305.692029 237.492337 
" style="fill:none;stroke:#f94144;stroke-linecap:square;stroke-width:2;"/>
   </g>
   <g id="line2d_23">
    <path clip-path="url(#p4fba320df8)" d="M 305.692029 237.492337 
L 305.439116 228.988124 
L 304.682218 220.507613 
L 303.426827 212.074442 
L 301.682018 203.712115 
L 299.460326 195.44394 
L 296.777582 187.292961 
L 293.652705 179.281897 
L 290.107459 171.433076 
L 286.166176 163.768374 
L 281.855455 156.309153 
L 277.203837 149.076205 
L 272.241461 142.089688 
L 266.999723 135.369076 
L 261.510919 128.9331 
L 255.807895 122.799697 
L 249.923711 116.985964 
L 243.891311 111.508103 
L 237.743215 106.381383 
L 231.511231 101.620093 
L 225.226193 97.237503 
L 218.917731 93.245829 
L 212.61406 89.656195 
L 206.341814 86.478607 
L 200.125901 83.721922 
L 193.989393 81.393822 
L 187.95345 79.500797 
L 182.037266 78.048123 
L 176.258051 77.039848 
L 170.631035 76.478783 
L 165.169495 76.366492 
L 159.884808 76.703287 
L 154.786514 77.488231 
L 149.882408 78.719134 
L 145.17863 80.392567 
L 140.679781 82.503865 
L 136.389037 85.047144 
L 132.308269 88.015315 
L 128.438175 91.400105 
L 124.778409 95.19208 
L 121.327701 99.380672 
L 118.083996 103.954206 
L 115.044566 108.899934 
L 112.20614 114.204073 
L 109.56501 119.851838 
L 107.117146 125.827488 
L 104.858294 132.114368 
L 102.784074 138.694955 
L 100.890069 145.550909 
L 99.171904 152.66312 
L 97.62532 160.011765 
L 96.246246 167.576362 
L 95.030851 175.335827 
L 93.975603 183.268534 
L 93.077313 191.352373 
L 92.333176 199.564811 
L 91.740804 207.882961 
L 91.298254 216.283637 
L 91.004049 224.743426 
L 90.857196 233.238748 
L 90.857196 241.745926 
L 91.004049 250.241248 
L 91.298254 258.701037 
L 91.740804 267.101713 
L 92.333176 275.419862 
L 93.077313 283.632301 
L 93.975603 291.716139 
L 95.030851 299.648846 
L 96.246246 307.408312 
L 97.62532 314.972909 
L 99.171904 322.321554 
L 100.890069 329.433765 
L 102.784074 336.289718 
L 104.858294 342.870306 
L 107.117146 349.157186 
L 109.56501 355.132836 
L 112.20614 360.780601 
L 115.044566 366.08474 
L 118.083996 371.030468 
L 121.327701 375.604002 
L 124.778409 379.792594 
L 128.438175 383.584569 
L 132.308269 386.969359 
L 136.389037 389.93753 
L 140.679781 392.480809 
L 145.17863 394.592107 
L 149.882408 396.26554 
L 154.786514 397.496443 
L 159.884808 398.281386 
L 165.169495 398.618182 
L 170.631035 398.505891 
L 176.258051 397.944826 
L 182.037266 396.936551 
L 187.95345 395.483877 
L 193.989393 393.590852 
L 200.125901 391.262752 
L 206.341814 388.506066 
L 212.61406 385.328479 
L 218.917731 381.738845 
L 225.226193 377.747171 
L 231.511231 373.364581 
L 237.743215 368.603291 
L 243.891311 363.476571 
L 249.923711 357.99871 
L 255.807895 352.184977 
L 261.510919 346.051574 
L 266.999723 339.615598 
L 272.241461 332.894985 
L 277.203837 325.908469 
L 281.855455 318.675521 
L 286.166176 311.2163 
L 290.107459 303.551598 
L 293.652705 295.702777 
L 296.777582 287.691713 
L 299.460326 279.540734 
L 301.682018 271.272558 
L 303.426827 262.910232 
L 304.682218 254.477061 
L 305.439116 245.99655 
L 305.692029 237.492337 
" style="fill:none;stroke:#f94144;stroke-linecap:square;stroke-width:2;"/>
   </g>
   <g id="line2d_24">
    <path clip-path="url(#p4fba320df8)" d="M 305.692029 237.492337 
L 305.439116 228.988124 
L 304.682218 220.507613 
L 303.426827 212.074442 
L 301.682018 203.712115 
L 299.460326 195.44394 
L 296.777582 187.292961 
L 293.652705 179.281897 
L 290.107459 171.433076 
L 286.166176 163.768374 
L 281.855455 156.309153 
L 277.203837 149.076205 
L 272.241461 142.089688 
L 266.999723 135.369076 
L 261.510919 128.9331 
L 255.807895 122.799697 
L 249.923711 116.985964 
L 243.891311 111.508103 
L 237.743215 106.381383 
L 231.511231 101.620093 
L 225.226193 97.237503 
L 218.917731 93.245829 
L 212.61406 89.656195 
L 206.341814 86.478607 
L 200.125901 83.721922 
L 193.989393 81.393822 
L 187.95345 79.500797 
L 182.037266 78.048123 
L 176.258051 77.039848 
L 170.631035 76.478783 
L 165.169495 76.366492 
L 159.884808 76.703287 
L 154.786514 77.488231 
L 149.882408 78.719134 
L 145.17863 80.392567 
L 140.679781 82.503865 
L 136.389037 85.047144 
L 132.308269 88.015315 
L 128.438175 91.400105 
L 124.778409 95.19208 
L 121.327701 99.380672 
L 118.083996 103.954206 
L 115.044566 108.899934 
L 112.20614 114.204073 
L 109.56501 119.851838 
L 107.117146 125.827488 
L 104.858294 132.114368 
L 102.784074 138.694955 
L 100.890069 145.550909 
L 99.171904 152.66312 
L 97.62532 160.011765 
L 96.246246 167.576362 
L 95.030851 175.335827 
L 93.975603 183.268534 
L 93.077313 191.352373 
L 92.333176 199.564811 
L 91.740804 207.882961 
L 91.298254 216.283637 
L 91.004049 224.743426 
L 90.857196 233.238748 
L 90.857196 241.745926 
L 91.004049 250.241248 
L 91.298254 258.701037 
L 91.740804 267.101713 
L 92.333176 275.419862 
L 93.077313 283.632301 
L 93.975603 291.716139 
L 95.030851 299.648846 
L 96.246246 307.408312 
L 97.62532 314.972909 
L 99.171904 322.321554 
L 100.890069 329.433765 
L 102.784074 336.289718 
L 104.858294 342.870306 
L 107.117146 349.157186 
L 109.56501 355.132836 
L 112.20614 360.780601 
L 115.044566 366.08474 
L 118.083996 371.030468 
L 121.327701 375.604002 
L 124.778409 379.792594 
L 128.438175 383.584569 
L 132.308269 386.969359 
L 136.389037 389.93753 
L 140.679781 392.480809 
L 145.17863 394.592107 
L 149.882408 396.26554 
L 154.786514 397.496443 
L 159.884808 398.281386 
L 165.169495 398.618182 
L 170.631035 398.505891 
L 176.258051 397.944826 
L 182.037266 396.936551 
L 187.95345 395.483877 
L 193.989393 393.590852 
L 200.125901 391.262752 
L 206.341814 388.506066 
L 212.61406 385.328479 
L 218.917731 381.738845 
L 225.226193 377.747171 
L 231.511231 373.364581 
L 237.743215 368.603291 
L 243.891311 363.476571 
L 249.923711 357.99871 
L 255.807895 352.184977 
L 261.510919 346.051574 
L 266.999723 339.615598 
L 272.241461 332.894985 
L 277.203837 325.908469 
L 281.855455 318.675521 
L 286.166176 311.2163 
L 290.107459 303.551598 
L 293.652705 295.702777 
L 296.777582 287.691713 
L 299.460326 279.540734 
L 301.682018 271.272558 
L 303.426827 262.910232 
L 304.682218 254.477061 
L 305.439116 245.99655 
L 305.692029 237.492337 
" style="fill:none;stroke:#f94144;stroke-linecap:square;stroke-width:2;"/>
   </g>
   <g id="line2d_25">
    <path clip-path="url(#p4fba320df8)" d="M 176.780123 237.492337 
L 305.692029 237.492337 
" style="fill:none;stroke:#000000;stroke-linecap:square;stroke-width:0.5;"/>
   </g>
   <g id="line2d_26">
    <path clip-path="url(#p4fba320df8)" d="M 305.692029 237.492337 
L 299.246434 240.715135 
" style="fill:none;stroke:#000000;stroke-linecap:square;stroke-width:0.5;"/>
   </g>
   <g id="line2d_27">
    <path clip-path="url(#p4fba320df8)" d="M 305.692029 237.492337 
L 299.246434 234.269539 
" style="fill:none;stroke:#000000;stroke-linecap:square;stroke-width:0.5;"/>
   </g>
   <g id="line2d_28">
    <path clip-path="url(#p4fba320df8)" d="M 123.066828 76.352454 
L 337.920006 76.352454 
" style="fill:none;stroke:#000000;stroke-linecap:square;stroke-width:0.5;"/>
   </g>
   <g id="line2d_29">
    <path clip-path="url(#p4fba320df8)" d="M 337.920006 237.492337 
L 337.920006 76.352454 
" style="fill:none;stroke:#000000;stroke-linecap:square;stroke-width:0.5;"/>
   </g>
   <g id="line2d_30">
    <path clip-path="url(#p4fba320df8)" d="M 337.920006 76.352454 
L 334.697208 82.798049 
" style="fill:none;stroke:#000000;stroke-linecap:square;stroke-width:0.5;"/>
   </g>
   <g id="line2d_31">
    <path clip-path="url(#p4fba320df8)" d="M 337.920006 76.352454 
L 341.142804 82.798049 
" style="fill:none;stroke:#000000;stroke-linecap:square;stroke-width:0.5;"/>
   </g>
   <g id="line2d_32">
    <path clip-path="url(#p4fba320df8)" d="M 337.920006 237.492337 
L 334.697208 231.046742 
" style="fill:none;stroke:#000000;stroke-linecap:square;stroke-width:0.5;"/>
   </g>
   <g id="line2d_33">
    <path clip-path="url(#p4fba320df8)" d="M 337.920006 237.492337 
L 341.142804 231.046742 
" style="fill:none;stroke:#000000;stroke-linecap:square;stroke-width:0.5;"/>
   </g>
   <g id="line2d_34">
    <path clip-path="url(#p4fba320df8)" d="M 176.780123 237.492337 
L 176.780123 33.381818 
" style="fill:none;stroke:#000000;stroke-linecap:square;stroke-width:0.5;"/>
   </g>
   <g id="line2d_35">
    <path clip-path="url(#p4fba320df8)" d="M 144.552146 97.837771 
L 144.552146 33.381818 
" style="fill:none;stroke:#000000;stroke-linecap:square;stroke-width:0.5;"/>
   </g>
   <g id="line2d_36">
    <path clip-path="url(#p4fba320df8)" d="M 144.552146 44.124477 
L 176.780123 44.124477 
" style="fill:none;stroke:#000000;stroke-linecap:square;stroke-width:0.5;"/>
   </g>
   <g id="line2d_37">
    <path clip-path="url(#p4fba320df8)" d="M 144.552146 44.124477 
L 150.997741 47.347275 
" style="fill:none;stroke:#000000;stroke-linecap:square;stroke-width:0.5;"/>
   </g>
   <g id="line2d_38">
    <path clip-path="url(#p4fba320df8)" d="M 144.552146 44.124477 
L 150.997741 40.901679 
" style="fill:none;stroke:#000000;stroke-linecap:square;stroke-width:0.5;"/>
   </g>
   <g id="line2d_39">
    <path clip-path="url(#p4fba320df8)" d="M 176.780123 44.124477 
L 170.334527 47.347275 
" style="fill:none;stroke:#000000;stroke-linecap:square;stroke-width:0.5;"/>
   </g>
   <g id="line2d_40">
    <path clip-path="url(#p4fba320df8)" d="M 176.780123 44.124477 
L 170.334527 40.901679 
" style="fill:none;stroke:#000000;stroke-linecap:square;stroke-width:0.5;"/>
   </g>
   <g id="line2d_41">
    <defs>
     <path d="M -3 3 
L 3 -3 
M -3 -3 
L 3 3 
" id="mb797d9e1d4" style="stroke:#ff0000;"/>
    </defs>
    <g clip-path="url(#p4fba320df8)">
     <use style="fill:#ff0000;stroke:#ff0000;" x="198.26544" xlink:href="#mb797d9e1d4" y="237.492337"/>
    </g>
   </g>
   <g id="line2d_42">
    <path clip-path="url(#p4fba320df8)" d="M 176.780123 269.720314 
L 198.26544 269.720314 
" style="fill:none;stroke:#000000;stroke-linecap:square;stroke-width:0.5;"/>
   </g>
   <g id="line2d_43">
    <path clip-path="url(#p4fba320df8)" d="M 176.780123 237.492337 
L 176.780123 280.462972 
" style="fill:none;stroke:#000000;stroke-linecap:square;stroke-width:0.5;"/>
   </g>
   <g id="line2d_44">
    <path clip-path="url(#p4fba320df8)" d="M 198.26544 237.492337 
L 198.26544 280.462972 
" style="fill:none;stroke:#000000;stroke-linecap:square;stroke-width:0.5;"/>
   </g>
   <g id="line2d_45">
    <path clip-path="url(#p4fba320df8)" d="M 176.780123 269.720314 
L 183.225718 272.943111 
" style="fill:none;stroke:#000000;stroke-linecap:square;stroke-width:0.5;"/>
   </g>
   <g id="line2d_46">
    <path clip-path="url(#p4fba320df8)" d="M 176.780123 269.720314 
L 183.225718 266.497516 
" style="fill:none;stroke:#000000;stroke-linecap:square;stroke-width:0.5;"/>
   </g>
   <g id="line2d_47">
    <path clip-path="url(#p4fba320df8)" d="M 198.26544 269.720314 
L 191.819845 272.943111 
" style="fill:none;stroke:#000000;stroke-linecap:square;stroke-width:0.5;"/>
   </g>
   <g id="line2d_48">
    <path clip-path="url(#p4fba320df8)" d="M 198.26544 269.720314 
L 191.819845 266.497516 
" style="fill:none;stroke:#000000;stroke-linecap:square;stroke-width:0.5;"/>
   </g>
   <g id="text_1">
    <!-- Minor radius $a$ -->
    <g transform="translate(187.522782 224.601146)scale(0.14 -0.14)">
     <defs>
      <path d="M 1338 4249 
C 1299 4345 1293 4352 1158 4352 
L 339 4352 
L 339 4185 
C 781 4185 851 4185 851 3898 
L 851 624 
C 851 465 851 166 339 166 
L 339 0 
C 486 12 755 12 915 12 
C 1075 12 1344 12 1491 0 
L 1491 166 
C 979 166 979 465 979 624 
L 979 4159 
L 986 4159 
L 2490 102 
C 2515 38 2528 0 2579 0 
C 2630 0 2643 38 2669 102 
L 4186 4191 
L 4192 4191 
L 4192 453 
C 4192 166 4122 166 3680 166 
L 3680 0 
C 3853 12 4198 12 4384 12 
C 4570 12 4922 12 5094 0 
L 5094 166 
C 4653 166 4582 166 4582 453 
L 4582 3898 
C 4582 4185 4653 4185 5094 4185 
L 5094 4352 
L 4282 4352 
C 4147 4352 4141 4345 4102 4249 
L 2720 516 
L 1338 4249 
z
" id="CMR17-4d" transform="scale(0.015625)"/>
      <path d="M 992 3961 
C 992 4102 877 4224 730 4224 
C 589 4224 467 4108 467 3961 
C 467 3820 582 3699 730 3699 
C 870 3699 992 3814 992 3961 
z
M 243 2745 
L 243 2579 
C 602 2579 653 2540 653 2231 
L 653 443 
C 653 198 627 166 218 166 
L 218 0 
C 371 12 646 12 806 12 
C 960 12 1222 12 1370 0 
L 1370 166 
C 992 166 979 205 979 436 
L 979 2816 
L 243 2745 
z
" id="CMR17-69" transform="scale(0.015625)"/>
      <path d="M 2656 1954 
C 2656 2282 2592 2816 1837 2816 
C 1331 2816 1069 2424 973 2166 
L 966 2166 
L 966 2816 
L 211 2745 
L 211 2578 
C 589 2578 646 2540 646 2231 
L 646 443 
C 646 198 621 166 211 166 
L 211 0 
C 365 12 646 12 813 12 
C 979 12 1267 12 1421 0 
L 1421 166 
C 1011 166 986 192 986 443 
L 986 1678 
C 986 2269 1344 2713 1792 2713 
C 2266 2713 2317 2289 2317 1980 
L 2317 443 
C 2317 198 2291 166 1882 166 
L 1882 0 
C 2035 12 2317 12 2483 12 
C 2650 12 2938 12 3091 0 
L 3091 166 
C 2682 166 2656 192 2656 443 
L 2656 1954 
z
" id="CMR17-6e" transform="scale(0.015625)"/>
      <path d="M 2758 1356 
C 2758 2176 2163 2816 1466 2816 
C 768 2816 173 2176 173 1356 
C 173 550 768 -64 1466 -64 
C 2163 -64 2758 550 2758 1356 
z
M 1466 51 
C 1165 51 909 230 762 480 
C 602 768 582 1126 582 1408 
C 582 1676 595 2009 762 2297 
C 890 2508 1139 2713 1466 2713 
C 1754 2713 1997 2553 2150 2329 
C 2349 2028 2349 1606 2349 1408 
C 2349 1158 2336 774 2163 467 
C 1984 172 1709 51 1466 51 
z
" id="CMR17-6f" transform="scale(0.015625)"/>
      <path d="M 960 1517 
C 960 2134 1222 2713 1702 2713 
C 1747 2713 1792 2707 1837 2687 
C 1837 2687 1696 2642 1696 2475 
C 1696 2321 1818 2257 1914 2257 
C 1990 2257 2131 2302 2131 2482 
C 2131 2687 1926 2816 1709 2816 
C 1222 2816 1011 2340 947 2115 
L 941 2115 
L 941 2816 
L 198 2745 
L 198 2578 
C 576 2578 634 2540 634 2231 
L 634 443 
C 634 198 608 166 198 166 
L 198 0 
C 352 12 646 12 813 12 
C 998 12 1325 12 1498 0 
L 1498 166 
C 1037 166 960 166 960 455 
L 960 1517 
z
" id="CMR17-72" transform="scale(0.015625)"/>
      <path d="M 2304 1656 
C 2304 2048 2304 2275 2035 2534 
C 1798 2751 1523 2816 1306 2816 
C 800 2816 435 2408 435 1977 
C 435 1740 627 1728 666 1728 
C 749 1728 896 1779 896 1958 
C 896 2118 774 2188 666 2188 
C 640 2188 608 2182 589 2176 
C 723 2594 1069 2713 1293 2713 
C 1613 2713 1965 2421 1965 1875 
L 1965 1632 
C 1587 1619 1133 1568 774 1373 
C 371 1147 256 822 256 576 
C 256 77 832 -64 1171 -64 
C 1523 -64 1850 135 1990 505 
C 2003 219 2182 -39 2464 -39 
C 2598 -39 2938 51 2938 563 
L 2938 926 
L 2822 926 
L 2822 557 
C 2822 161 2650 109 2566 109 
C 2304 109 2304 446 2304 732 
L 2304 1656 
z
M 1965 887 
C 1965 323 1568 38 1216 38 
C 896 38 646 278 646 576 
C 646 771 730 1114 1101 1322 
C 1408 1497 1760 1523 1965 1536 
L 1965 887 
z
" id="CMR17-61" transform="scale(0.015625)"/>
      <path d="M 1869 4345 
L 1869 4179 
C 2246 4179 2304 4141 2304 3843 
L 2304 2371 
C 2278 2403 2016 2816 1498 2816 
C 845 2816 211 2228 211 1376 
C 211 529 806 -64 1434 -64 
C 1978 -64 2259 361 2291 406 
L 2291 -64 
L 3066 -13 
L 3066 154 
C 2688 154 2630 193 2630 503 
L 2630 4416 
L 1869 4345 
z
M 2291 762 
C 2291 568 2176 393 2029 264 
C 1811 70 1594 38 1472 38 
C 1286 38 621 135 621 1369 
C 621 2636 1363 2713 1530 2713 
C 1824 2713 2061 2545 2208 2313 
C 2291 2177 2291 2157 2291 2041 
L 2291 762 
z
" id="CMR17-64" transform="scale(0.015625)"/>
      <path d="M 1882 2745 
L 1882 2579 
C 2259 2579 2317 2540 2317 2229 
L 2317 1053 
C 2317 510 2029 38 1555 38 
C 1030 38 986 355 986 691 
L 986 2816 
L 211 2745 
L 211 2579 
C 467 2579 640 2579 646 2320 
L 646 1079 
C 646 646 646 368 813 187 
C 896 103 1056 -64 1517 -64 
C 2061 -64 2272 400 2323 536 
L 2330 536 
L 2330 -64 
L 3091 -13 
L 3091 154 
C 2714 154 2656 193 2656 503 
L 2656 2816 
L 1882 2745 
z
" id="CMR17-75" transform="scale(0.015625)"/>
      <path d="M 1978 2688 
C 1978 2803 1971 2809 1933 2809 
C 1907 2809 1901 2803 1824 2707 
C 1805 2681 1747 2617 1728 2592 
C 1523 2809 1235 2816 1126 2816 
C 416 2816 160 2444 160 2073 
C 160 1497 813 1363 998 1324 
C 1402 1241 1542 1216 1677 1100 
C 1760 1024 1901 883 1901 652 
C 1901 384 1747 38 1158 38 
C 602 38 403 460 288 1024 
C 269 1113 269 1120 218 1120 
C 166 1120 160 1113 160 985 
L 160 64 
C 160 -52 166 -58 205 -58 
C 237 -58 243 -52 275 0 
C 314 57 410 211 448 275 
C 576 102 800 -64 1158 -64 
C 1792 -64 2131 281 2131 780 
C 2131 1107 1958 1280 1875 1356 
C 1683 1555 1459 1600 1190 1651 
C 838 1728 390 1817 390 2208 
C 390 2374 480 2726 1126 2726 
C 1811 2726 1850 2086 1862 1881 
C 1869 1849 1901 1843 1920 1843 
C 1978 1843 1978 1862 1978 1971 
L 1978 2688 
z
" id="CMR17-73" transform="scale(0.015625)"/>
      <path d="M 1926 759 
C 1894 651 1894 638 1805 517 
C 1664 338 1382 64 1082 64 
C 819 64 672 300 672 676 
C 672 1028 870 1743 992 2011 
C 1210 2458 1510 2687 1760 2687 
C 2182 2687 2266 2164 2266 2113 
C 2266 2107 2246 2024 2240 2011 
L 1926 759 
z
M 2336 2394 
C 2266 2560 2093 2816 1760 2816 
C 1037 2816 256 1883 256 938 
C 256 306 627 -64 1062 -64 
C 1414 -64 1715 210 1894 421 
C 1958 44 2259 -64 2451 -64 
C 2643 -64 2797 51 2912 280 
C 3014 496 3104 885 3104 910 
C 3104 942 3078 968 3040 968 
C 2982 968 2976 936 2950 840 
C 2854 465 2733 64 2470 64 
C 2285 64 2272 229 2272 356 
C 2272 503 2291 573 2349 821 
C 2394 980 2426 1120 2477 1305 
C 2714 2260 2771 2489 2771 2528 
C 2771 2617 2701 2688 2605 2688 
C 2400 2688 2349 2464 2336 2388 
L 2336 2394 
z
" id="CMMI12-61" transform="scale(0.015625)"/>
     </defs>
     <use transform="scale(0.996264)" xlink:href="#CMR17-4d"/>
     <use transform="translate(84.686941 0)scale(0.996264)" xlink:href="#CMR17-69"/>
     <use transform="translate(109.557999 0)scale(0.996264)" xlink:href="#CMR17-6e"/>
     <use transform="translate(160.453369 0)scale(0.996264)" xlink:href="#CMR17-6f"/>
     <use transform="translate(206.143846 0)scale(0.996264)" xlink:href="#CMR17-72"/>
     <use transform="translate(271.50058 0)scale(0.996264)" xlink:href="#CMR17-72"/>
     <use transform="translate(306.781348 0)scale(0.996264)" xlink:href="#CMR17-61"/>
     <use transform="translate(352.471825 0)scale(0.996264)" xlink:href="#CMR17-64"/>
     <use transform="translate(403.367195 0)scale(0.996264)" xlink:href="#CMR17-69"/>
     <use transform="translate(428.238253 0)scale(0.996264)" xlink:href="#CMR17-75"/>
     <use transform="translate(479.133623 0)scale(0.996264)" xlink:href="#CMR17-73"/>
     <use transform="translate(545.010927 0)scale(0.996264)" xlink:href="#CMMI12-61"/>
    </g>
   </g>
   <g id="text_2">
    <!-- $\kappa a$ -->
    <g transform="translate(329.343362 162.857221)rotate(-90)scale(0.14 -0.14)">
     <defs>
      <path d="M 1363 1595 
C 1574 1710 1811 1908 1971 2042 
C 2355 2374 2496 2476 2739 2572 
C 2714 2534 2707 2483 2707 2438 
C 2707 2265 2854 2233 2918 2233 
C 3123 2233 3238 2425 3238 2547 
C 3238 2585 3226 2752 3002 2752 
C 2618 2752 2240 2425 1958 2188 
C 1587 1863 1402 1723 1139 1640 
L 1382 2655 
C 1382 2758 1299 2816 1216 2816 
C 1158 2816 1018 2796 966 2591 
L 371 223 
C 352 146 352 134 352 95 
C 352 6 422 -64 518 -64 
C 710 -64 749 102 781 236 
C 819 369 1082 1433 1094 1472 
C 1907 1433 2182 1229 2182 917 
C 2182 873 2182 854 2163 783 
C 2138 662 2138 592 2138 554 
C 2138 172 2387 -64 2701 -64 
C 2963 -64 3110 121 3206 286 
C 3341 535 3424 885 3424 911 
C 3424 943 3398 968 3360 968 
C 3302 968 3296 943 3270 841 
C 3187 535 3046 64 2720 64 
C 2579 64 2509 146 2509 369 
C 2509 490 2534 631 2560 726 
C 2573 790 2592 866 2592 936 
C 2592 1518 1786 1576 1363 1595 
z
" id="CMMI12-14" transform="scale(0.015625)"/>
     </defs>
     <use transform="scale(0.996264)" xlink:href="#CMMI12-14"/>
     <use transform="translate(56.154624 0)scale(0.996264)" xlink:href="#CMMI12-61"/>
    </g>
   </g>
   <g id="text_3">
    <!-- $\delta a$ -->
    <g transform="translate(153.146273 63.461263)scale(0.14 -0.14)">
     <defs>
      <path d="M 1664 2795 
C 845 2597 256 1748 256 1001 
C 256 319 717 -64 1229 -64 
C 1984 -64 2496 970 2496 1818 
C 2496 2393 2227 2743 2067 2954 
C 1830 3254 1446 3745 1446 4052 
C 1446 4160 1530 4352 1811 4352 
C 2010 4352 2131 4281 2323 4173 
C 2381 4134 2528 4052 2611 4052 
C 2746 4052 2842 4186 2842 4288 
C 2842 4409 2746 4428 2522 4480 
C 2221 4544 2131 4544 2022 4544 
C 1914 4544 1286 4544 1286 3892 
C 1286 3579 1446 3216 1664 2795 
z
M 1734 2673 
C 1978 2169 2074 1978 2074 1563 
C 2074 1065 1805 64 1235 64 
C 986 64 627 229 627 823 
C 627 1238 864 2444 1734 2673 
z
" id="CMMI12-e" transform="scale(0.015625)"/>
     </defs>
     <use transform="scale(0.996264)" xlink:href="#CMMI12-e"/>
     <use transform="translate(46.941386 0)scale(0.996264)" xlink:href="#CMMI12-61"/>
    </g>
   </g>
   <g id="text_4">
    <!-- $\Delta$ -->
    <g transform="translate(183.225718 261.126186)scale(0.14 -0.14)">
     <defs>
      <path d="M 2598 4435 
C 2547 4544 2522 4544 2470 4544 
C 2394 4544 2387 4531 2342 4441 
L 269 108 
C 262 96 237 38 237 32 
C 237 6 243 0 358 0 
L 4576 0 
C 4691 0 4698 6 4698 32 
C 4698 38 4672 96 4666 108 
L 2598 4435 
z
M 2310 4056 
L 4083 358 
L 531 358 
L 2310 4056 
z
" id="CMR17-1" transform="scale(0.015625)"/>
     </defs>
     <use transform="scale(0.996264)" xlink:href="#CMR17-1"/>
    </g>
   </g>
  </g>
 </g>
 <defs>
  <clipPath id="p4fba320df8">
   <rect height="401.76" width="401.76" x="15.12" y="15.12"/>
  </clipPath>
 </defs>
</svg>
