<?xml version="1.0" encoding="UTF-8" standalone="no"?>
<svg
   width="57.231476mm"
   height="29.135147mm"
   viewBox="0 0 57.231476 29.135147"
   version="1.1"
   id="svg8"
   inkscape:version="1.1 (c4e8f9ed74, 2021-05-24)"
   sodipodi:docname="logo1.svg"
   xmlns:inkscape="http://www.inkscape.org/namespaces/inkscape"
   xmlns:sodipodi="http://sodipodi.sourceforge.net/DTD/sodipodi-0.dtd"
   xmlns="http://www.w3.org/2000/svg"
   xmlns:svg="http://www.w3.org/2000/svg"
   xmlns:rdf="http://www.w3.org/1999/02/22-rdf-syntax-ns#"
   xmlns:cc="http://creativecommons.org/ns#"
   xmlns:dc="http://purl.org/dc/elements/1.1/">
  <defs
     id="defs2">
    <rect
       id="rect835"
       height="49.703388"
       width="164.2234"
       y="74.457535"
       x="88.62281" />
  </defs>
  <sodipodi:namedview
     fit-margin-bottom="0"
     fit-margin-right="0"
     fit-margin-left="0"
     fit-margin-top="0"
     inkscape:window-maximized="1"
     inkscape:window-y="0"
     inkscape:window-x="0"
     inkscape:window-height="1372"
     inkscape:window-width="2560"
     showgrid="false"
     inkscape:document-rotation="0"
     inkscape:current-layer="layer1"
     inkscape:document-units="mm"
     inkscape:cy="80"
     inkscape:cx="112.05357"
     inkscape:zoom="5.6"
     inkscape:pageshadow="2"
     inkscape:pageopacity="0.0"
     borderopacity="1.0"
     bordercolor="#666666"
     pagecolor="#ffffff"
     id="base"
     inkscape:pagecheckerboard="0" />
  <metadata
     id="metadata5">
    <rdf:RDF>
      <cc:Work
         rdf:about="">
        <dc:format>image/svg+xml</dc:format>
        <dc:type
           rdf:resource="http://purl.org/dc/dcmitype/StillImage" />
        <dc:title />
      </cc:Work>
    </rdf:RDF>
  </metadata>
  <g
     transform="translate(-80.077644,-65.842578)"
     id="layer1"
     inkscape:groupmode="layer"
     inkscape:label="Lager 1">
    <g
       transform="translate(43.592362,-19.37561)"
       id="g897">
      <circle
         style="opacity:1;fill:#3c26a5;fill-opacity:1;stroke:none;stroke-width:1.32292"
         id="path839"
         cx="84.716759"
         cy="99.91362"
         r="9" />
      <circle
         style="opacity:1;fill:#ac356d;fill-opacity:1;stroke:none;stroke-width:1.32292"
         id="path856"
         cx="83.967171"
         cy="99.91362"
         r="8" />
      <circle
         style="opacity:1;fill:#f95523;fill-opacity:1;stroke:none;stroke-width:1.32292"
         id="path858"
         cx="83.915344"
         cy="99.91362"
         r="7" />
      <circle
         style="opacity:1;fill:#e5ce42;fill-opacity:1;stroke:none;stroke-width:1.32292"
         id="path887"
         cx="84.168587"
         cy="99.91362"
         r="6" />
      <circle
         style="opacity:1;fill:#f1f1bb;fill-opacity:1;stroke:none;stroke-width:1.32292"
         id="path889"
         cx="84.541893"
         cy="99.91362"
         r="5" />
      <ellipse
         cy="99.91362"
         cx="79.171875"
         id="path839-3"
         style="opacity:1;fill:#ffffff;fill-opacity:1;stroke:none;stroke-width:1.32292"
         rx="9"
         ry="11" />
    </g>
    <path
       inkscape:transform-center-y="0.15819292"
       inkscape:transform-center-x="0.16887975"
       d="m 89.357322,73.300208 -2.246187,-0.04033 -1.306625,1.827489 -0.655749,-2.148716 -2.141814,-0.677949 1.840912,-1.287644 -0.01709,-2.246484 1.793495,1.352908 2.131252,-0.710455 -0.732471,2.123787 z"
       inkscape:randomized="0"
       inkscape:rounded="0"
       inkscape:flatsided="false"
       sodipodi:arg2="1.1047316"
       sodipodi:arg1="0.47641306"
       sodipodi:r2="1.6915118"
       sodipodi:r1="3.3830235"
       sodipodi:cy="71.748772"
       sodipodi:cx="86.351013"
       sodipodi:sides="5"
       id="path928"
       style="opacity:1;fill:#f1f1bb;fill-opacity:1;stroke:none;stroke-width:1.32292"
       sodipodi:type="star" />
    <path
       transform="rotate(20,171.0025,83.894035)"
       sodipodi:type="star"
       style="opacity:1;fill:#f1f1bb;fill-opacity:1;stroke:none;stroke-width:1.32292"
       id="path928-0"
       sodipodi:sides="5"
       sodipodi:cx="107.68308"
       sodipodi:cy="91.305984"
       sodipodi:r1="3.3830235"
       sodipodi:r2="1.6915118"
       sodipodi:arg1="0.47641306"
       sodipodi:arg2="1.1047316"
       inkscape:flatsided="false"
       inkscape:rounded="0"
       inkscape:randomized="0"
       d="m 110.68939,92.857421 -2.24619,-0.04033 -1.30662,1.827488 -0.65575,-2.148715 -2.14181,-0.677949 1.84091,-1.287644 -0.0171,-2.246484 1.79349,1.352908 2.13126,-0.710455 -0.73247,2.123787 z"
       inkscape:transform-center-x="0.12203413"
       inkscape:transform-center-y="-0.20478092" />
    <path
       transform="rotate(60,104.27157,91.758754)"
       sodipodi:type="star"
       style="opacity:1;fill:#f1f1bb;fill-opacity:1;stroke:none;stroke-width:1.32292"
       id="path928-4"
       sodipodi:sides="5"
       sodipodi:cx="102.87773"
       sodipodi:cy="93.852379"
       sodipodi:r1="3.3830235"
       sodipodi:r2="1.6915118"
       sodipodi:arg1="0.47641306"
       sodipodi:arg2="1.1047316"
       inkscape:flatsided="false"
       inkscape:rounded="0"
       inkscape:randomized="0"
       d="m 105.88404,95.403815 -2.24619,-0.04033 -1.30662,1.827489 -0.65575,-2.148715 -2.141815,-0.677949 1.840915,-1.287644 -0.0171,-2.246485 1.79349,1.352908 2.13126,-0.710455 -0.73248,2.123787 z"
       inkscape:transform-center-x="-0.049309538"
       inkscape:transform-center-y="0.27579456" />
    <path
       transform="rotate(20,121.50924,89.243462)"
       sodipodi:type="star"
       style="opacity:1;fill:#f1f1bb;fill-opacity:1;stroke:none;stroke-width:1.32292"
       id="path928-8"
       sodipodi:sides="5"
       sodipodi:cx="121.50924"
       sodipodi:cy="89.243462"
       sodipodi:r1="3.3830235"
       sodipodi:r2="1.6915118"
       sodipodi:arg1="0.47641306"
       sodipodi:arg2="1.1047316"
       inkscape:flatsided="false"
       inkscape:rounded="0"
       inkscape:randomized="0"
       d="m 124.51555,90.794898 -2.24619,-0.04033 -1.30662,1.827488 -0.65575,-2.148715 -2.14182,-0.677949 1.84091,-1.287644 -0.0171,-2.246484 1.79349,1.352908 2.13125,-0.710455 -0.73247,2.123787 z"
       inkscape:transform-center-x="0.12203397"
       inkscape:transform-center-y="-0.20478208" />
    <path
       transform="rotate(80,83.460412,87.532891)"
       sodipodi:type="star"
       style="opacity:1;fill:#f1f1bb;fill-opacity:1;stroke:none;stroke-width:1.32292"
       id="path928-88"
       sodipodi:sides="5"
       sodipodi:cx="83.460411"
       sodipodi:cy="87.53289"
       sodipodi:r1="3.3830235"
       sodipodi:r2="1.6915118"
       sodipodi:arg1="0.47641306"
       sodipodi:arg2="1.1047316"
       inkscape:flatsided="false"
       inkscape:rounded="0"
       inkscape:randomized="0"
       d="m 86.46672,89.084327 -2.246187,-0.04033 -1.306625,1.827488 -0.655749,-2.148715 -2.141814,-0.677949 1.840912,-1.287644 -0.01709,-2.246484 1.793496,1.352907 2.131252,-0.710454 -0.732471,2.123787 z"
       inkscape:transform-center-x="0.31081704"
       inkscape:transform-center-y="0.012835266" />
    <g
       aria-label="DREAM"
       id="text891"
       style="font-style:normal;font-weight:normal;font-size:11.2889px;line-height:125%;font-family:sans-serif;letter-spacing:0px;word-spacing:0px;white-space:pre;shape-inside:url(#rect835);fill:#000000;fill-opacity:1;stroke:none;stroke-width:0.264583px;stroke-linecap:butt;stroke-linejoin:miter;stroke-opacity:1">
      <path
         d="m 89.482944,76.497597 h 3.709682 q 1.09692,0 1.769403,0.297657 0.677996,0.297657 1.118968,0.854385 0.440973,0.556728 0.639411,1.295357 0.198437,0.738629 0.198437,1.565453 0,1.295357 -0.297656,2.011938 -0.292145,0.711068 -0.8158,1.196138 -0.523655,0.479558 -1.12448,0.63941 -0.821312,0.220487 -1.488283,0.220487 h -3.709682 z m 2.497007,1.830037 v 4.415239 h 0.61185 q 0.782726,0 1.113456,-0.170877 0.330729,-0.176389 0.518143,-0.606337 0.187413,-0.435461 0.187413,-1.405601 0,-1.284333 -0.418924,-1.758378 -0.418924,-0.474046 -1.389064,-0.474046 z"
         style="font-style:normal;font-variant:normal;font-weight:900;font-stretch:normal;font-size:11.2889px;font-family:Arial;-inkscape-font-specification:'Arial, Heavy';font-variant-ligatures:normal;font-variant-caps:normal;font-variant-numeric:normal;font-variant-east-asian:normal;letter-spacing:-1.05833px"
         id="path962" />
      <path
         d="m 97.205482,84.578422 v -8.080825 h 4.161678 q 1.15755,0 1.7694,0.198438 0.61185,0.198438 0.98668,0.738629 0.37483,0.53468 0.37483,1.306382 0,0.672483 -0.28663,1.163065 -0.28664,0.48507 -0.78824,0.788239 -0.31971,0.192926 -0.87644,0.319705 0.44649,0.148828 0.65044,0.297657 0.1378,0.09922 0.39687,0.424436 0.26459,0.325217 0.35278,0.501606 l 1.20716,2.342668 h -2.82222 l -1.33394,-2.469447 q -0.25356,-0.479558 -0.452,-0.622874 -0.2701,-0.187414 -0.61185,-0.187414 h -0.220486 v 3.279735 z m 2.508032,-4.806602 h 1.052826 q 0.17087,0 0.66146,-0.110244 0.24804,-0.04961 0.40238,-0.253559 0.15986,-0.20395 0.15986,-0.468533 0,-0.391364 -0.24805,-0.600826 -0.24805,-0.209462 -0.93156,-0.209462 h -1.096916 z"
         style="font-style:normal;font-variant:normal;font-weight:900;font-stretch:normal;font-size:11.2889px;font-family:Arial;-inkscape-font-specification:'Arial, Heavy';font-variant-ligatures:normal;font-variant-caps:normal;font-variant-numeric:normal;font-variant-east-asian:normal;letter-spacing:-1.05833px"
         id="path964" />
      <path
         d="m 104.88944,76.497597 h 6.69176 v 1.725306 h -4.18924 v 1.284333 h 3.88607 v 1.648135 h -3.88607 v 1.593014 h 4.3105 v 1.830037 h -6.81302 z"
         style="font-style:normal;font-variant:normal;font-weight:900;font-stretch:normal;font-size:11.2889px;font-family:Arial;-inkscape-font-specification:'Arial, Heavy';font-variant-ligatures:normal;font-variant-caps:normal;font-variant-numeric:normal;font-variant-east-asian:normal;letter-spacing:-1.05833px"
         id="path966" />
      <path
         d="m 116.96107,83.244479 h -2.84428 l -0.39136,1.333943 h -2.55213 l 3.0372,-8.080825 h 2.72301 l 3.03719,8.080825 h -2.61276 z m -0.52366,-1.747354 -0.89297,-2.904907 -0.88746,2.904907 z"
         style="font-style:normal;font-variant:normal;font-weight:900;font-stretch:normal;font-size:11.2889px;font-family:Arial;-inkscape-font-specification:'Arial, Heavy';font-variant-ligatures:normal;font-variant-caps:normal;font-variant-numeric:normal;font-variant-east-asian:normal;letter-spacing:-1.05833px"
         id="path968" />
      <path
         d="m 119.68408,76.497597 h 3.28524 l 1.2678,4.916846 1.26229,-4.916846 h 3.27422 v 8.080825 h -2.0395 v -6.162593 l -1.58199,6.162593 h -1.84657 l -1.57648,-6.162593 v 6.162593 h -2.04501 z"
         style="font-style:normal;font-variant:normal;font-weight:900;font-stretch:normal;font-size:11.2889px;font-family:Arial;-inkscape-font-specification:'Arial, Heavy';font-variant-ligatures:normal;font-variant-caps:normal;font-variant-numeric:normal;font-variant-east-asian:normal;letter-spacing:-1.05833px"
         id="path970" />
    </g>
  </g>
</svg>
